<svg width="120" height="121" viewBox="0 0 120 121" fill="none" xmlns="http://www.w3.org/2000/svg">
<path fill-rule="evenodd" clip-rule="evenodd" d="M119.858 64.67C119.837 64.982 119.579 65.22 119.273 65.22C119.26 65.22 119.246 65.22 119.233 65.219C118.909 65.198 118.665 64.915 118.687 64.589C118.779 63.233 118.825 61.855 118.825 60.493C118.825 59.247 118.786 57.986 118.709 56.741C118.689 56.415 118.935 56.134 119.258 56.114C119.59 56.91 119.861 56.342 119.881 56.668C119.959 57.936 119.999 59.223 119.999 60.493C119.999 61.882 119.951 63.287 119.858 64.67ZM118.976 53.171C118.949 53.175 118.924 53.176 118.898 53.176C118.608 53.176 118.356 52.96 118.317 52.662C118.141 51.313 117.915 49.953 117.647 48.62C117.582 48.299 117.787 47.987 118.105 47.922C118.426 47.857 118.732 48.64 118.796 48.384C119.71 49.744 119.301 51.131 119.481 52.507C119.523 52.832 119.297 53.129 118.976 53.171ZM117.421 45.46C117.369 45.61 117.316 45.69 117.264 45.69C117.6 45.69 116.77 44.896 116.699 44.634C116.34 43.325 115.929 42.1 115.479 40.725C115.371 40.416 115.531 40.78 115.837 39.969C116.143 39.861 116.477 40.22 116.585 40.33C117.45 41.641 117.464 42.983 117.83 44.319C117.917 44.634 117.733 44.959 117.421 45.46ZM117.331 76.277C117.643 76.365 117.824 76.692 117.735 77.7C117.36 78.346 116.933 79.685 116.467 80.989C116.381 81.23 116.155 81.38 115.915 81.38C115.849 81.38 115.782 81.369 115.716 81.345C115.411 81.234 115.253 80.895 115.363 80.588C115.819 79.31 116.238 77.997 116.606 76.685C116.694 76.37 117.2 76.189 117.331 76.277ZM114.766 37.222C114.69 37.255 114.611 37.271 114.533 37.271C114.306 37.271 114.9 37.138 113.994 36.915C113.46 35.672 112.873 34.428 112.25 33.216C112.101 32.927 112.213 32.569 112.501 32.419C112.788 32.269 113.143 32.381 113.292 32.672C113.928 33.908 114.526 35.177 115.71 36.444C115.2 36.744 115.63 37.93 114.766 37.222ZM114.626 84.95C114.923 84.227 115.57 84.576 114.926 84.875C114.372 86.143 113.764 87.411 113.121 88.644C113.16 88.845 112.812 88.961 112.601 88.961C112.509 88.961 112.415 88.938 112.328 88.892C112.41 88.74 111.931 88.382 112.82 88.93C112.713 86.884 113.309 85.641 113.852 84.398C113.983 84.99 114.33 83.964 114.626 84.95ZM111.62 29.845C110.967 29.904 110.861 29.932 110.757 29.932C110.559 29.932 110.366 29.831 110.256 29.648C109.554 28.489 108.802 27.338 108.21 26.226C107.833 25.959 107.895 25.59 108.16 25.401C108.425 25.212 108.791 25.275 108.978 25.541C109.775 26.675 110.542 27.849 111.257 29.32C111.427 29.311 111.339 29.675 111.62 29.845ZM107.115 65.219C107.98 65.219 107.81 65.218 107.64 65.217C106.741 65.189 106.501 64.902 106.529 64.577C106.644 63.23 106.702 61.856 106.702 60.493C106.702 59.988 106.694 59.487 106.679 58.986C106.668 58.659 106.923 58.385 107.246 58.375C107.582 58.357 107.842 58.622 107.852 58.948C107.868 59.461 107.876 59.976 107.876 60.493C107.876 61.89 107.817 63.298 107.699 64.678C107.672 64.987 107.416 65.219 107.115 65.219ZM107.3 55.427C107.7 55.43 106.984 55.431 106.961 55.431C106.667 55.431 106.414 55.21 106.379 54.909C106.22 53.556 106.1 52.199 105.728 50.875C105.662 50.555 105.866 50.241 106.184 50.175C106.5 50.108 106.811 50.314 106.878 50.634C107.157 51.992 107.382 53.383 107.544 54.77C107.582 55.95 107.352 55.389 107.3 55.427ZM106.13 23.183C105.843 23.183 105.674 23.11 105.558 22.967C104.701 21.911 103.799 20.873 102.877 19.884C102.655 19.646 102.667 19.271 102.903 19.48C103.139 18.824 103.511 18.836 103.732 19.74C104.673 20.83 105.593 21.14 106.467 22.217C106.672 22.47 106.635 22.843 106.384 23.49C106.275 23.14 106.144 23.183 106.13 23.183ZM100.391 17.152C100.248 17.152 100.105 17.1 99.992 16.994C99 16.67 97.965 15.164 96.917 14.311C96.664 14.105 96.625 13.733 96.828 13.479C97.32 13.224 97.402 13.184 97.654 13.389C98.723 14.26 99.779 15.181 100.79 16.127C101.28 16.349 101.42 16.724 100.822 16.963C100.706 17.88 100.549 17.152 100.391 17.152ZM98.292 32.501C98.186 32.58 98.63 32.618 97.941 32.618C97.762 32.618 97.586 32.535 97.47 32.38C96.667 31.293 95.806 30.226 94.909 29.21C94.694 28.965 94.716 28.591 94.958 28.374C95.2 28.157 95.571 28.178 95.786 28.423C96.706 29.466 97.589 30.559 98.411 31.673C98.605 31.935 98.551 32.305 98.292 32.501ZM95.664 55.128C95.712 55.451 95.49 55.751 95.17 55.8C95.14 55.804 95.112 55.806 95.83 55.806C94.796 55.806 94.546 55.595 94.503 55.301C94.306 53.963 94.3 52.623 93.681 51.317C93.597 51.1 93.783 50.676 94.96 50.591C94.408 50.505 94.731 50.693 94.815 51.8C95.175 52.359 95.461 53.745 95.664 55.128ZM94 11.953C93.884 11.953 93.767 11.918 93.664 11.845C92.56 11.67 91.412 10.315 90.252 9.61301C89.974 9.44501 89.884 9.81001 90.51 8.80101C90.218 8.52101 90.578 8.42901 90.856 8.59901C92.4 9.31501 93.211 10.82 94.337 10.876C94.603 11.63 94.668 11.433 94.482 11.7C94.368 11.864 94.185 11.953 94 11.953ZM92.916 26.251C92.8 26.373 92.645 26.436 92.489 26.436C92.344 26.436 92.199 26.382 92.86 26.274C91.108 25.341 90.77 24.439 89.22 23.594C88.768 23.391 88.725 23.19 88.927 22.762C89.128 22.507 89.498 22.464 89.752 22.667C90.834 23.534 91.89 24.458 92.893 25.414C93.129 25.638 93.139 26.14 92.916 26.251ZM86.96 7.68801C86.87 7.68801 86.779 7.66701 86.694 7.62301C85.492 7.40001 84.252 6.42001 83.7 5.88601C82.709 5.75701 82.57 5.41001 82.697 5.10901C82.824 4.80901 83.168 4.66801 83.466 4.79701C84.737 5.34101 86.2 5.93801 87.228 6.56901C87.516 6.71801 87.631 7.74001 87.483 7.36501C87.38 7.57001 87.174 7.68801 86.96 7.68801ZM86.387 20.204C86.658 20.385 86.732 20.753 86.553 21.25C86.44 21.197 86.253 21.29 86.63 21.29C85.952 21.29 85.84 21.258 85.74 21.192C84.617 20.442 83.447 19.732 82.263 19.84C81.979 18.928 81.873 18.569 82.28 18.282C82.183 17.995 82.539 17.888 82.824 18.45C84.37 18.71 85.236 19.436 86.387 20.204ZM84.42 34.192C83.926 34.323 83.765 34.39 83.604 34.39C83.465 34.39 83.326 34.34 83.213 34.239C82.211 33.337 81.147 32.485 80.5 31.707C79.786 31.519 79.722 31.15 79.909 30.883C80.95 30.616 80.461 30.551 80.727 30.74C81.859 31.544 82.959 32.425 83.995 33.356C84.237 33.574 84.258 33.948 84.42 34.192ZM79.399 4.44401C79.336 4.44401 79.271 4.43301 79.208 4.41101C77.933 3.96701 76.626 3.56301 75.321 3.20901C75.8 3.12401 74.823 2.79901 74.907 2.48401C74.991 2.16701 75.317 1.98101 75.626 2.66001C76.957 2.42701 78.291 2.84001 79.591 3.29301C79.897 3.40001 80.6 3.73601 79.954 4.45001C79.87 4.29001 79.643 4.44401 79.399 4.44401ZM75.204 14.701C76.515 15.143 77.821 15.649 79.86 16.204C79.383 16.335 79.52 16.684 79.39 16.984C79.294 17.206 79.78 17.339 78.851 17.339C78.773 17.339 78.694 17.324 78.618 17.29C77.383 16.748 76.11 16.254 74.831 15.823C74.524 15.719 74.358 15.384 74.461 15.74C74.564 14.764 74.898 14.598 75.204 14.701ZM77.416 29.323C77.309 29.52 77.107 29.632 76.899 29.632C76.805 29.632 76.709 29.609 76.619 29.56C75.439 28.914 74.209 28.331 72.965 27.828C72.664 27.706 72.518 27.361 72.639 27.58C72.758 26.754 73.1 26.608 73.402 26.729C74.688 27.249 75.959 27.852 77.18 28.52C77.465 28.676 77.57 29.35 77.416 29.323ZM71.475 2.29301C71.437 2.29301 71.4 2.28901 71.361 2.28201C70.37 2.20001 68.686 1.80201 67.347 1.63401C67.25 1.59301 66.797 1.29801 66.837 0.974015C66.877 0.649015 67.17 0.418015 67.492 0.459015C68.857 0.631015 70.235 0.854015 71.587 1.12001C71.905 1.18301 72.113 1.49401 72.5 1.81401C71.995 2.97001 71.75 2.29301 71.475 2.29301ZM71.207 13.545C71.523 13.621 71.717 13.941 71.641 14.258C71.577 14.529 71.336 14.711 71.71 14.711C71.26 14.711 70.979 14.707 70.933 14.695C69.626 14.379 68.287 14.117 66.954 13.916C66.633 13.868 66.412 13.566 66.46 13.243C66.508 12.92 66.805 12.698 67.127 12.745C68.494 12.951 69.867 13.22 71.207 13.545ZM69.855 26.12C69.784 26.383 69.548 26.556 69.289 26.556C69.238 26.556 69.186 26.55 69.135 26.535C67.842 26.182 66.513 25.902 65.184 25.702C64.863 25.654 64.642 25.352 64.69 25.29C64.738 24.706 65.37 24.484 65.357 24.531C66.731 24.738 68.105 25.28 69.442 25.393C69.755 25.479 69.94 25.804 69.855 26.12ZM63.33 1.26801C63.319 1.26801 63.309 1.26701 63.297 1.26701C61.953 1.19201 60.577 1.16201 59.232 1.18001C59.229 1.18001 59.227 1.18001 59.225 1.18001C58.904 1.18001 58.642 0.919015 58.638 0.595015C58.634 0.268015 58.893 1.4618e-05 59.217 0.300015C60.595 0.210015 61.991 0.800015 63.362 0.850015C63.686 0.103015 63.934 0.382015 63.916 0.709015C63.898 1.24001 63.639 1.26801 63.33 1.26801ZM62.993 12.306C63.317 12.326 63.563 12.607 63.543 12.933C63.524 13.247 63.266 13.488 62.958 13.488C62.946 13.488 62.933 13.488 62.921 13.487C61.576 13.404 60.211 13.378 58.867 13.409C58.551 13.412 58.273 13.158 58.266 12.832C58.258 12.505 58.515 12.234 58.839 12.226C60.215 12.193 61.615 12.22 62.993 12.306ZM61.202 24.152C61.526 24.163 61.78 24.436 61.769 24.763C61.759 25.9 61.489 25.348 61.163 25.334C60.769 25.321 60.393 25.327 59.978 25.315C59.29 25.315 58.7 25.354 57.126 25.431C57.11 25.433 57.94 25.433 57.78 25.433C56.775 25.433 56.518 25.199 56.493 24.89C56.467 24.564 56.707 24.278 57.31 24.252C58.6 24.172 58.998 24.131 59.978 24.131C60.402 24.122 60.796 24.137 61.202 24.152ZM55.169 1.37001C53.821 1.48101 52.463 1.63901 51.131 1.84201C51.102 1.84601 51.72 1.84901 51.43 1.84901C50.758 1.84901 50.507 1.63901 50.463 1.34501C50.415 1.22001 50.636 0.721015 50.956 0.672015C52.315 0.465015 53.7 0.303015 55.74 0.191015C55.398 0.166015 55.681 0.407015 55.707 0.733015C55.733 1.59001 55.492 1.34501 55.169 1.37001ZM54.693 12.504C55.13 12.468 55.305 12.703 55.34 13.27C55.376 13.353 55.143 13.645 54.821 13.68C53.482 13.829 52.133 14.39 50.813 14.304C50.774 14.311 50.736 14.315 50.698 14.315C50.424 14.315 50.179 14.12 50.123 13.839C50.6 13.518 50.266 13.206 50.584 13.143C51.938 12.871 53.32 12.657 54.693 12.504ZM53.589 25.299C53.652 25.619 53.446 25.931 53.128 25.995C51.812 26.259 50.498 26.605 49.222 27.21C49.162 27.41 49.101 27.51 49.41 27.51C48.794 27.51 48.563 26.891 48.483 26.641C48.383 26.33 48.552 25.996 48.86 25.896C50.179 25.465 51.538 25.108 52.899 24.834C53.215 24.771 53.525 24.979 53.589 25.299ZM47.135 2.59401C45.818 2.89001 44.495 3.23701 43.2 3.62401C43.144 3.64101 43.88 3.64901 43.33 3.64901C42.78 3.64901 42.547 3.48201 42.47 3.22501C42.378 2.91201 42.555 2.58301 42.866 2.49001C44.186 2.94001 45.537 1.74101 46.88 1.43901C47.197 1.37001 47.51 1.56901 47.581 1.88801C47.651 2.20701 47.452 2.52301 47.135 2.59401ZM46.547 14.14C46.861 14.47 47.184 14.229 47.275 14.543C47.365 14.856 47.187 15.185 46.876 15.276C45.585 15.655 44.293 16.98 43.37 16.592C42.967 16.62 42.895 16.633 42.824 16.633C42.589 16.633 42.368 16.49 42.277 16.256C42.16 15.951 42.309 15.608 42.611 15.489C43.899 14.984 45.224 14.529 46.547 14.14ZM45.75 27.715C45.885 28.11 45.756 28.363 45.461 28.499C44.244 29.62 43.44 29.704 41.897 30.407C41.802 30.465 41.696 30.492 41.593 30.492C41.394 30.492 41.201 30.392 41.91 30.208C40.922 29.929 41.1 29.564 41.287 29.395C42.474 28.669 43.713 28.6 44.972 27.423C45.267 27.287 45.615 27.419 45.75 27.715ZM39.346 4.92801C38.84 5.40401 36.822 5.93202 35.596 6.49701C35.516 6.53301 35.434 6.54901 35.353 6.54901C35.13 6.54901 34.916 6.42201 34.818 6.20401C34.684 5.90601 34.813 5.55501 35.108 5.42001C36.36 4.84401 37.647 4.30601 38.934 3.81901C39.237 3.70401 39.576 3.86001 39.69 4.16601C39.803 4.47201 39.65 4.81301 39.346 4.92801ZM38.676 31.886C38.875 32.144 38.829 32.516 38.574 32.716C37.516 33.546 36.494 34.448 35.536 35.398C35.421 35.511 35.273 35.567 35.124 35.567C34.973 35.567 34.821 35.508 34.706 35.39C34.478 35.157 34.482 34.783 34.713 34.553C35.703 33.573 36.76 32.641 37.853 31.783C38.108 31.582 38.477 31.628 38.676 31.886ZM36.346 86.364C36.584 86.586 36.599 86.96 36.38 87.2C36.264 87.327 36.106 87.391 35.948 87.391C35.806 87.391 35.663 87.339 35.55 87.234C34.529 86.285 33.553 85.268 32.65 84.209C32.439 83.962 32.466 83.588 32.712 83.375C32.956 83.162 33.327 83.189 33.54 83.438C34.414 84.461 35.358 85.445 36.346 86.364ZM30.472 41.723C30.36 41.902 30.17 41.999 29.975 41.999C29.868 41.999 29.759 41.97 29.662 41.908C29.388 41.733 29.306 41.368 29.479 41.91C30.221 39.909 31.39 38.758 31.909 37.67C32.114 37.416 32.483 37.376 32.735 37.582C32.987 37.786 33.27 38.159 32.823 38.414C31.98 39.466 31.189 40.58 30.472 41.723ZM29.239 25.37C29.127 25.135 28.99 25.183 28.852 25.183C28.689 25.183 28.527 25.114 28.41 24.981C28.197 24.735 28.222 24.361 28.466 24.146C29.504 23.23 30.595 22.348 31.709 21.525C31.97 21.332 32.338 21.389 32.53 21.652C32.721 21.917 32.664 22.286 32.403 22.479C31.316 23.283 30.252 24.143 29.239 25.37ZM31.961 8.32401C30.776 8.97201 29.597 9.67201 28.459 10.402C28.361 10.464 28.252 10.494 28.144 10.494C27.95 10.494 27.76 10.397 27.649 10.22C27.474 9.94501 27.555 9.57801 27.829 9.40301C28.99 8.65801 30.192 7.94601 31.401 7.28401C31.688 7.12801 32.42 7.23501 32.197 7.52201C32.351 7.80901 32.246 8.16801 31.961 8.32401ZM28.24 44.495C28.532 44.637 28.656 44.99 28.515 45.285C27.933 46.507 27.418 47.775 26.982 49.52C26.898 49.297 26.671 49.452 26.427 49.452C26.364 49.452 26.299 49.441 26.236 49.419C25.93 49.313 25.767 48.976 25.872 48.667C26.322 47.347 26.855 46.37 27.457 44.773C27.597 44.479 27.947 44.352 28.24 44.495ZM23.623 30.928C23.506 31.73 23.337 31.148 23.165 31.148C23.36 31.148 22.906 31.104 22.797 31.16C22.545 30.811 22.505 30.438 22.709 30.184C23.576 29.102 24.5 28.45 25.457 27.4C25.683 26.804 26.54 26.797 26.287 27.23C26.521 27.249 26.528 27.624 26.304 27.86C25.37 28.84 24.467 29.872 23.623 30.928ZM21.92 15.263C21.809 15.358 21.674 15.404 21.54 15.404C21.373 15.404 21.208 15.332 21.93 15.195C20.882 14.946 20.913 14.572 21.16 14.361C22.21 13.462 23.303 12.589 24.41 11.766C24.671 11.572 25.38 11.628 25.231 11.891C25.423 12.154 25.368 12.524 25.107 12.718C24.22 13.525 22.949 14.381 21.92 15.263ZM21.213 34.217C20.46 35.346 19.747 36.519 19.96 37.705C18.988 37.9 18.788 38.1 18.581 38.1C18.485 38.1 18.388 37.987 18.298 37.936C18.14 37.778 17.911 37.418 18.69 37.132C18.737 35.916 19.467 34.713 20.24 33.556C20.42 33.286 20.785 33.214 21.54 33.396C21.323 33.579 21.394 33.946 21.213 34.217ZM16.1 20.984C15.984 21.114 15.823 21.182 15.662 21.182C15.523 21.182 15.383 21.132 15.271 21.31C15.29 20.813 15.9 20.439 15.224 20.195C16.14 19.162 17.106 18.146 18.93 17.175C18.325 16.947 18.696 16.951 18.923 17.185C19.149 17.419 19.144 17.794 18.912 18.22C17.944 18.974 16.998 19.97 16.1 20.984ZM16.989 40.585C17.285 40.718 17.418 41.67 17.287 41.366C16.738 42.609 16.238 43.889 15.8 45.172C15.717 45.417 15.489 45.572 15.246 45.572C15.183 45.572 15.118 45.561 15.55 45.539C14.748 45.433 14.585 45.96 14.691 44.787C15.139 43.472 15.651 42.159 16.214 40.885C16.346 40.587 16.693 40.452 16.989 40.585ZM14.651 49.91C14.327 50.409 14.56 51.757 13.845 53.97C13.8 53.389 13.55 53.597 13.266 53.597C13.236 53.597 13.205 53.595 13.174 53.59C12.854 53.539 12.635 53.236 12.686 52.913C12.901 51.538 13.179 50.156 13.512 48.806C13.59 48.488 13.907 48.295 14.223 48.374C14.538 48.453 14.729 48.774 14.651 49.91ZM11.112 27.458C10.999 27.628 10.814 27.72 10.625 27.72C10.512 27.72 10.398 27.687 10.298 27.619C10.29 27.437 9.958 27.69 10.138 26.798C10.906 25.645 11.724 24.504 12.569 23.408C12.768 23.151 13.136 23.103 13.393 23.304C13.649 23.505 13.695 23.876 13.496 24.135C12.668 25.209 11.866 26.327 11.112 27.458ZM10.904 93.214C11.653 94.352 12.447 95.474 13.266 96.55C13.463 96.81 13.414 97.181 13.157 97.38C13.5 97.462 12.925 97.502 12.8 97.502C12.624 97.502 12.45 97.422 12.334 97.27C11.499 96.173 10.689 95.28 9.927 93.868C9.747 93.596 9.821 93.228 10.91 93.48C10.361 92.866 10.725 92.942 10.904 93.214ZM7.55 34.564C6.953 34.775 6.744 34.897 6.526 34.897C6.44 34.897 6.353 34.877 6.27 34.837C5.979 34.694 5.858 34.34 5.999 34.46C6.602 32.798 7.257 31.554 7.944 30.349C8.106 30.67 8.464 29.969 8.746 30.132C9.27 30.295 9.124 30.656 8.961 30.94C8.287 32.121 7.646 33.34 7.55 34.564ZM6.898 86.93C7.481 87.319 8.114 88.541 8.78 89.723C8.94 90.7 8.84 90.368 8.558 90.53C8.467 90.582 8.368 90.607 8.27 90.607C8.65 90.607 7.867 90.499 7.758 90.306C7.8 89.101 6.434 87.856 5.84 86.605C5.699 86.31 5.823 85.956 6.115 85.815C6.408 85.672 6.758 85.799 6.898 86.93ZM4.11 42.171C3.931 42.422 3.701 42.581 3.453 42.581C3.393 42.581 3.332 42.571 3.272 42.552C2.964 42.451 2.795 42.117 2.895 41.806C3.32 40.488 3.797 39.164 4.313 37.871C4.434 37.568 4.777 37.423 5.77 37.544C5.377 37.666 5.523 38.1 5.402 38.314C4.895 39.58 4.428 40.879 4.11 42.171ZM2.892 46.112C2.566 47.431 2.282 48.781 2.47 50.121C1.997 50.408 1.75 50.61 1.47 50.61C1.436 50.61 1.402 50.608 1.367 50.601C1.48 50.544 0.835002 50.238 0.892002 49.915C1.131 48.548 1.421 47.172 1.752 45.826C1.831 45.508 2.15 45.314 2.464 45.395C2.779 45.474 2.97 45.795 2.892 46.112ZM1.48 54.18C1.339 55.529 1.242 56.905 1.192 58.269C1.18 58.588 0.920002 58.838 0.606002 58.838C0.599002 58.838 0.591002 58.838 0.584002 58.838C0.260002 58.826 0.700002 58.551 0.190002 58.225C0.700002 56.834 0.169002 55.431 0.313002 54.55C0.347002 53.73 0.639002 53.496 0.958002 53.529C1.281 53.563 1.515 53.854 1.48 54.18ZM0.575002 61.796C0.901002 61.782 1.169 62.41 1.18 62.369C1.221 63.728 1.31 65.103 1.445 66.459C1.477 66.784 1.242 67.74 0.919002 67.107C0.899002 67.108 0.880002 67.109 0.860002 67.109C0.562002 67.109 0.307002 66.881 0.277002 66.576C0.140002 65.194 0.480002 63.791 0.600002 62.405C0.300002 62.78 0.251002 61.805 0.575002 61.796ZM1.311 70.36C1.631 69.982 1.933 70.199 1.988 70.52C2.215 71.865 2.491 73.215 2.809 74.535C2.886 74.853 2.692 75.172 2.377 75.25C2.331 75.261 2.284 75.266 2.238 75.266C1.974 75.266 1.734 75.85 1.668 74.814C1.344 73.468 1.62 72.91 0.831002 70.72C0.776002 70.397 0.991003 70.92 1.311 70.36ZM3.168 78.97C3.478 77.998 3.807 78.17 3.905 78.481C4.315 79.781 4.775 81.79 5.271 82.342C5.39 82.645 5.243 82.99 4.942 83.11C4.871 83.138 4.798 83.152 4.726 83.152C4.492 83.152 4.271 83.11 4.18 82.778C3.674 81.49 3.205 80.165 2.787 78.84C2.688 78.529 2.859 78.195 3.168 78.97ZM12.702 61.848C12.699 61.848 12.696 61.848 12.693 61.848C12.373 61.848 12.111 61.588 12.106 61.265C12.102 61.9 12.1 60.751 12.1 60.494C12.1 59.358 12.139 58.208 12.218 57.77C12.241 56.751 12.518 56.507 12.844 56.528C13.168 56.551 13.411 56.834 13.388 57.159C13.312 58.264 13.273 59.385 13.273 60.493C13.274 60.744 13.276 60.996 13.28 61.246C13.285 61.573 13.26 61.842 12.702 61.848ZM12.949 69.594C12.692 68.231 12.49 66.837 12.349 65.448C12.316 65.123 12.551 64.832 12.873 64.799C13.188 64.762 13.484 65.2 13.517 65.327C13.655 66.682 13.852 68.43 14.103 69.373C14.163 69.693 13.954 70.3 13.636 70.64C13.599 70.71 13.562 70.74 13.525 70.74C13.249 70.74 13.3 69.877 12.949 69.594ZM14.311 72.942C14.618 72.856 14.947 73.36 15.35 73.35C15.402 74.656 15.831 75.962 16.309 77.231C16.425 77.537 16.273 77.878 15.97 77.994C15.901 78.21 15.83 78.34 15.761 78.34C15.524 78.34 15.301 77.888 15.212 77.651C14.722 76.35 14.282 75.11 13.906 73.673C13.818 73.358 13.999 73.31 14.311 72.942ZM15.848 99.715C16.74 100.735 17.68 101.737 18.642 102.695C18.872 102.925 18.874 103.299 18.646 103.531C18.532 103.649 18.38 103.708 18.229 103.708C18.8 103.708 17.931 103.65 17.816 103.537C16.836 102.56 15.878 101.538 14.968 100.498C14.753 100.254 14.776 99.879 15.2 99.663C15.262 99.447 15.633 99.469 15.848 99.715ZM17.131 80.709C17.423 80.566 17.774 80.69 17.915 80.983C18.502 82.205 19.149 83.416 19.838 84.581C20.4 84.862 19.913 85.225 19.634 85.392C19.54 85.449 19.437 85.476 19.335 85.476C19.135 85.476 18.94 85.373 18.83 85.187C18.123 83.993 17.46 82.752 16.858 81.499C16.717 81.205 16.839 80.851 17.131 80.709ZM21.632 105.474C22.653 106.361 23.721 107.224 24.805 108.4C25.65 108.236 25.118 108.607 24.924 108.868C24.808 109.24 24.632 109.106 24.453 109.106C24.331 109.106 24.208 109.69 24.102 108.988C22.997 108.156 21.908 107.276 20.866 106.371C20.62 106.157 20.593 105.785 20.804 105.536C21.15 105.288 21.387 105.261 21.632 105.474ZM25.446 52.27C25.763 52.339 25.963 52.654 25.895 52.973C25.609 54.291 25.398 55.644 25.266 56.993C25.236 57.299 24.98 57.527 24.682 57.527C24.663 57.527 24.644 57.526 24.624 57.524C24.302 57.492 24.66 57.203 24.98 56.877C24.234 55.482 24.453 54.84 24.747 52.722C24.816 52.403 25.129 52.2 25.446 52.27ZM24.513 92.43C24.402 92.139 24.266 92.186 24.13 92.186C23.965 92.186 23.801 92.117 23.685 91.98C22.786 90.928 21.92 89.821 21.111 88.69C20.922 88.425 20.981 88.55 21.244 87.864C21.507 87.673 21.874 87.733 22.64 87.998C22.852 89.101 23.697 90.181 24.575 91.209C24.786 91.457 24.759 91.83 24.513 92.43ZM24.504 60.479C24.508 60.479 24.51 60.479 24.513 60.479C24.834 60.479 25.95 60.737 25.1 61.61C25.121 62.415 25.219 63.781 25.394 65.119C25.437 65.443 25.21 65.741 24.889 65.784C24.863 65.786 24.837 65.788 24.812 65.788C24.522 65.788 24.27 65.572 24.231 65.274C24.5 63.89 23.948 62.479 23.926 61.79C23.921 60.752 24.18 60.484 24.504 60.479ZM25.438 68.688C25.754 68.608 26.72 68.8 26.151 69.117C26.48 70.431 26.889 71.737 27.365 72.999C27.48 73.304 27.328 73.646 27.25 73.762C26.956 73.788 26.886 73.801 26.816 73.801C26.58 73.801 26.357 73.656 26.268 73.419C25.775 72.115 25.354 70.765 25.13 69.406C24.934 69.9 25.124 68.768 25.438 68.688ZM27.352 94.189C28.314 95.137 29.33 96.55 30.373 96.917C30.624 97.125 30.66 97.497 30.455 97.75C30.338 97.893 30.17 97.966 30 97.966C29.87 97.966 29.738 97.922 29.628 97.832C28.559 96.948 27.518 96.7 26.531 95.36C26.3 94.807 26.295 94.432 26.522 94.199C26.749 93.965 27.12 93.961 27.352 94.189ZM30.114 80.87C29.335 79.711 28.616 78.496 27.977 77.258C27.827 76.968 27.939 76.611 28.226 76.46C28.515 76.31 28.869 76.423 29.18 76.712C29.636 77.908 30.332 79.84 31.86 80.206C31.268 80.476 31.198 80.845 30.929 81.28C30.828 81.97 30.714 81.13 30.6 81.13C30.412 81.13 30.227 81.39 30.114 80.87ZM28.146 110.381C29.282 111.119 30.457 111.827 31.64 112.483C31.923 112.641 32.27 113.1 31.871 113.288C31.763 113.483 31.563 113.594 31.356 113.594C31.26 113.594 31.163 113.569 31.73 113.52C29.867 112.85 28.668 112.129 27.51 111.375C27.238 111.198 27.159 110.832 27.334 110.557C27.51 110.282 27.873 110.203 28.146 110.381ZM33.617 99.372C34.729 100.14 35.887 100.868 37.59 101.536C37.342 101.696 37.442 102.57 37.282 102.341C37.175 102.534 36.975 102.642 36.771 102.642C36.673 102.642 36.574 102.618 36.483 102.566C35.281 101.881 34.93 101.136 32.953 100.349C32.686 100.164 32.618 99.796 32.801 99.526C32.984 99.257 33.349 99.188 33.617 99.372ZM35.269 114.337C36.496 114.91 37.758 115.447 39.2 115.933C39.322 116.49 39.474 116.391 39.359 116.697C39.27 116.933 39.47 117.78 38.811 117.78C38.741 117.78 38.67 117.65 38.601 117.38C37.314 116.544 36.27 115.996 34.775 115.411C34.481 115.274 34.353 114.922 34.49 114.625C34.626 114.329 34.973 114.2 35.269 114.337ZM35.775 20.208C35.679 20.266 35.574 20.294 35.47 20.294C35.272 20.294 35.78 20.192 34.968 20.9C34.799 19.73 34.888 19.366 35.165 19.196C36.345 18.473 37.571 17.795 38.808 17.179C39.97 17.34 39.451 17.154 39.594 17.448C39.737 17.74 39.618 18.95 39.328 18.24C38.121 18.84 36.925 19.503 35.775 20.208ZM43.86 91.956C42.979 92.148 42.779 92.257 42.575 92.257C42.477 92.257 42.378 92.232 42.287 92.18C41.81 91.493 39.9 90.727 38.776 89.903C38.514 89.711 38.456 89.341 38.647 89.77C38.839 88.812 39.205 88.754 39.467 88.946C40.554 89.744 41.697 90.485 42.863 91.149C43.146 91.311 43.246 91.671 43.86 91.956ZM40.676 103.389C41.903 103.951 43.168 104.465 44.438 104.917C44.744 105.26 44.904 105.363 44.797 105.671C44.711 105.915 44.485 106.67 44.243 106.67C44.178 106.67 44.112 106.56 44.48 106.33C42.746 105.57 41.448 105.42 40.19 104.466C39.894 104.33 39.764 103.98 39.898 103.683C40.32 103.386 40.378 103.252 40.676 103.389ZM42.872 117.261C44.162 117.656 45.485 118.1 46.802 118.315C47.118 118.387 47.315 118.705 47.243 119.23C47.181 119.297 46.939 119.483 46.671 119.483C46.628 119.483 46.583 119.478 46.539 119.468C45.196 119.158 43.848 118.797 42.532 118.393C42.221 118.299 42.46 117.968 42.14 117.656C42.234 117.343 42.562 117.166 42.872 117.261ZM50.136 95.456C50.83 95.456 50.28 95.449 49.974 95.433C48.641 95.45 47.316 94.574 46.37 94.32C45.738 93.905 45.598 93.559 45.723 93.257C45.849 92.955 46.193 92.814 46.492 92.941C47.729 93.465 49.1 93.921 50.299 94.295C50.611 94.387 50.79 94.714 50.7 95.28C50.627 95.288 50.392 95.456 50.136 95.456ZM48.318 106.108C49.619 106.445 50.953 106.729 52.285 106.952C52.604 107.5 52.821 107.31 52.767 107.632C52.72 107.922 52.471 108.127 52.189 108.127C52.158 108.127 52.125 108.124 52.92 108.118C50.727 107.891 49.359 107.6 48.25 107.254C47.711 107.172 47.522 106.849 47.603 106.533C47.684 106.216 48.1 106.27 48.318 106.108ZM50.793 119.9C52.127 119.301 53.484 119.467 54.829 119.585C55.152 119.613 55.391 119.9 55.363 120.225C55.336 120.534 55.8 120.766 54.779 120.766C54.761 120.766 54.745 120.766 54.727 120.764C53.356 120.644 51.971 120.474 50.611 120.26C50.291 120.209 50.72 119.906 50.122 119.583C50.173 119.261 50.471 119.38 50.793 119.9ZM58.193 96.809C56.804 96.74 55.408 96.589 54.44 96.361C53.725 96.308 53.508 96.3 53.562 95.68C53.614 95.358 53.912 95.138 54.237 95.194C55.556 95.415 56.907 95.56 58.25 95.626C58.574 95.643 58.824 95.92 58.808 96.247C58.792 96.563 58.533 96.81 58.222 96.81C58.212 96.81 58.203 96.809 58.193 96.809ZM56.31 107.445C57.525 107.541 58.762 107.589 59.988 107.589L60.362 107.587C60.364 107.587 60.365 107.587 60.366 107.587C60.689 107.587 60.951 107.85 60.953 108.175C60.956 108.501 60.695 108.768 60.37 108.771L59.989 108.773C58.732 108.773 57.464 108.723 56.218 108.625C55.895 108.6 55.653 108.315 55.679 107.99C55.704 107.663 55.97 107.42 56.31 107.445ZM58.889 119.799C60.238 119.825 61.608 119.803 62.956 119.736C63.279 119.711 63.555 119.971 63.572 120.298C63.588 120.624 63.338 120.901 63.15 120.918C62.13 120.968 60.995 120.994 59.988 120.994C59.614 120.994 59.24 120.99 58.868 120.983C58.543 120.977 58.286 120.707 58.292 120.381C58.298 120.54 58.557 119.805 58.889 119.799ZM62.365 96.776C62.352 96.777 62.339 96.777 62.326 96.777C62.19 96.777 61.761 96.537 61.741 96.224C61.72 95.898 61.965 95.616 62.288 95.595C63.631 95.506 64.979 95.339 66.295 95.97C66.615 95.4 66.92 95.251 66.978 95.573C67.36 95.894 66.824 96.203 66.506 96.261C65.146 96.512 63.752 96.684 62.365 96.776ZM64.412 107.381C65.756 107.253 67.108 107.65 68.429 106.822C68.749 106.766 69.53 106.977 69.111 107.298C69.17 107.619 68.958 107.928 68.64 107.987C67.285 108.236 65.899 108.428 64.522 108.559C64.503 108.56 64.485 108.561 64.466 108.561C64.167 108.561 63.911 108.332 63.882 108.25C63.852 107.7 64.89 107.412 64.412 107.381ZM67.7 119.393C68.35 119.232 69.702 119.22 71.25 118.768C71.347 118.706 71.651 118.919 71.711 119.24C71.772 119.561 71.563 119.87 71.244 119.931C69.894 120.189 68.515 120.403 67.146 120.568C67.123 120.571 67.99 120.572 67.76 120.572C66.783 120.572 66.529 120.351 66.494 120.5C66.455 119.725 66.686 119.431 67.7 119.393ZM70.561 95.266C70.504 95.283 70.446 95.292 70.389 95.292C70.137 95.292 69.905 95.129 69.828 94.873C69.733 94.561 69.907 94.23 70.217 94.134C71.5 93.738 72.773 93.261 74.1 92.718C74.3 92.586 74.644 92.723 74.775 93.22C74.905 93.321 74.77 93.67 74.473 93.802C73.203 94.363 71.887 94.856 70.561 95.266ZM72.382 105.914C73.682 105.554 74.98 105.133 76.242 104.66C76.544 104.548 76.884 104.703 76.996 105.9C77.109 105.316 76.954 105.656 76.65 105.77C75.357 106.254 74.25 106.686 72.693 107.55C72.641 107.7 72.589 107.77 72.537 107.77C72.28 107.77 72.43 106.903 71.972 106.641C71.886 106.326 72.7 106 72.382 105.914ZM74.99 117.865C76.294 117.519 77.604 117.122 78.883 116.685C79.192 116.581 79.524 116.746 79.628 117.55C79.732 117.365 79.567 117.701 79.261 117.806C77.955 118.252 76.619 118.656 75.288 119.9C75.239 119.22 75.189 119.29 75.139 119.29C74.879 119.29 74.641 118.853 74.572 118.587C74.49 118.271 74.677 117.948 74.99 117.865ZM77.893 91.971C77.691 91.971 77.495 91.867 77.386 91.679C77.222 91.396 77.316 91.34 77.596 90.869C78.752 90.186 79.883 89.427 80.955 88.613C81.215 88.416 81.582 88.47 81.777 88.73C81.972 88.991 81.92 89.362 81.661 89.559C80.552 90.4 79.384 91.185 78.189 91.89C78.96 91.945 77.994 91.971 77.893 91.971ZM79.975 103.73C81.189 102.492 82.395 101.85 83.56 101.163C83.839 100.997 84.198 101.92 84.363 101.374C84.526 101.657 84.432 102.18 84.153 102.184C82.959 102.889 81.723 103.547 80.479 104.142C80.397 104.181 80.312 104.199 80.227 104.199C80.7 104.199 79.797 104.74 79.697 103.861C79.557 103.565 79.682 103.213 79.975 103.73ZM82.681 115.237C83.923 114.713 85.165 114.138 86.371 113.527C86.663 113.381 87.13 113.498 87.159 113.79C87.305 114.82 87.188 114.438 86.898 114.584C85.668 115.207 84.401 115.794 83.133 116.329C83.6 116.361 82.983 116.376 82.907 116.376C82.678 116.376 82.46 116.239 82.365 116.12C82.24 115.711 82.381 115.363 82.681 115.237ZM86.966 98.946C88.66 98.16 89.144 97.316 90.17 96.44C90.418 96.228 90.789 96.26 90.998 96.509C91.207 96.758 91.176 97.131 90.929 97.343C89.877 98.241 88.772 99.106 87.645 99.911C87.542 99.985 87.424 100.2 87.306 100.2C87.122 100.2 86.941 99.934 86.827 99.771C86.64 99.504 86.702 99.134 86.966 98.946ZM89.936 111.562C91.95 110.87 92.247 110.127 93.358 109.353C93.625 109.166 93.991 109.235 94.175 109.504C94.359 109.773 94.292 110.142 94.26 110.327C92.891 111.116 91.717 111.874 90.534 112.581C90.44 112.636 90.337 112.663 90.236 112.663C90.35 112.663 89.84 112.559 89.73 112.373C89.565 112.92 89.657 111.729 89.936 111.562ZM96.706 90.565C96.955 90.774 96.988 91.147 96.78 91.398C95.895 92.468 94.954 93.511 93.982 94.498C93.867 94.614 93.716 94.673 93.565 94.673C93.416 94.673 93.266 94.615 93.152 94.501C92.922 94.271 92.92 93.896 93.149 93.664C94.97 92.701 95.15 91.683 95.879 90.64C96.86 90.389 96.456 90.354 96.706 90.565ZM94.662 68.125C94.978 68.2 95.174 68.518 95.1 68.836C94.783 70.198 94.382 71.556 93.909 72.872C93.823 73.112 93.597 73.262 93.357 73.262C93.291 73.262 93.223 73.25 93.157 73.226C92.852 73.115 92.695 72.776 92.805 72.468C93.263 71.196 93.65 69.882 93.957 68.566C94.31 68.247 94.347 68.51 94.662 68.125ZM90.932 42.97C91.215 42.814 91.572 42.921 91.727 43.208C92.387 44.439 92.983 45.72 93.496 47.17C93.616 47.32 93.47 47.665 93.169 47.786C93.97 47.815 93.24 47.828 92.951 47.828C92.718 47.828 92.497 47.687 92.406 47.455C91.909 46.201 91.333 44.962 90.694 43.772C90.54 43.485 90.646 43.125 90.932 42.97ZM92 75.945C92.29 76.92 92.407 76.447 92.262 76.74C91.642 77.99 90.941 79.217 90.182 80.387C90.69 80.561 89.881 80.655 89.69 80.655C89.58 80.655 89.468 80.624 89.369 80.559C89.98 80.38 89.22 80.13 89.199 79.739C89.935 78.607 90.612 77.42 91.212 76.209C91.357 75.917 91.71 75.799 92 75.945ZM87.623 82.935C87.871 83.145 87.905 83.517 87.697 83.769C86.809 84.843 85.849 85.876 84.844 86.839C84.731 86.948 84.585 87.2 84.44 87.2C84.285 87.2 84.13 86.941 84.14 86.818C83.791 86.581 83.8 86.207 84.35 85.981C85.7 85.5 85.936 84.5 86.796 83.11C87.2 82.76 87.373 82.726 87.623 82.935ZM86.943 36.333C87.864 37.377 88.735 38.486 89.532 39.632C89.718 39.899 89.654 40.269 89.389 40.456C89.286 40.529 89.168 40.563 89.52 40.563C88.867 40.563 88.685 40.476 88.571 40.311C87.8 39.204 86.957 38.13 86.66 37.12C85.85 36.876 85.872 36.502 86.114 36.285C86.355 36.68 86.727 36.88 86.943 36.333ZM95.431 58.745C95.743 58.725 96.26 58.991 96.36 59.318C96.48 59.708 96.55 60.1 96.54 60.493C96.54 61.891 95.974 63.305 95.816 64.691C95.782 64.993 95.528 65.216 95.234 65.216C95.211 65.216 95.189 65.214 95.166 65.212C94.845 65.175 94.613 64.881 94.65 64.557C94.803 63.214 94.88 61.847 94.88 60.493C94.881 60.112 94.874 59.732 94.863 59.355C94.853 59.28 95.107 58.755 95.431 58.745ZM99.714 104.249C99.953 104.28 100.324 104.45 100.543 104.285C100.762 104.527 100.746 104.901 100.507 105.122C99.488 106.62 98.427 106.975 97.354 107.838C97.246 107.924 97.117 107.966 96.989 107.966C96.816 107.966 96.645 107.89 96.529 107.743C96.327 107.487 96.369 107.115 96.623 106.911C97.675 106.67 98.715 105.171 99.714 104.249ZM98.821 88.32C98.705 88.32 98.588 88.285 98.485 88.213C98.22 88.26 98.155 87.657 98.34 87.389C99.11 86.275 99.841 85.114 100.513 83.936C100.675 83.652 101.33 83.555 101.315 83.718C101.595 83.881 101.692 84.243 101.531 84.526C100.842 85.733 100.92 86.924 99.303 88.66C99.189 88.231 99.6 88.32 98.821 88.32ZM99.941 34.945C100.216 34.775 100.578 34.859 100.749 35.138C101.476 36.324 102.159 37.554 102.779 38.794C102.925 39.86 102.808 39.442 102.519 39.589C102.434 39.632 102.344 39.652 102.255 39.652C102.4 39.652 101.833 39.533 101.73 39.327C101.126 38.117 100.46 36.917 99.75 35.76C99.58 35.482 99.665 35.117 99.941 34.945ZM103.926 76.524C104.37 76.217 104.374 76.58 104.678 76.169C104.982 76.281 105.14 76.62 105.3 76.927C104.559 78.238 104.26 79.542 103.445 80.804C103.345 81.2 103.133 81.146 102.911 81.146C102.829 81.146 102.745 81.129 102.665 81.91C102.371 80.953 102.243 80.602 102.38 80.305C102.946 79.75 103.467 77.803 103.926 76.524ZM105.318 98.312C105.525 98.61 105.895 98.25 106.144 98.234C106.394 98.443 106.428 98.815 106.221 99.67C105.343 100.136 104.416 101.189 103.467 102.194C103.352 102.316 103.197 102.378 103.42 102.378C102.897 102.378 102.751 102.324 102.638 102.215C102.402 101.989 102.393 101.615 102.617 101.378C103.547 100.393 104.456 99.361 105.318 98.312ZM104.73 46.912C104.342 45.611 103.893 44.312 103.395 43.52C103.274 42.749 103.421 42.405 103.723 42.284C104.21 42.162 104.364 42.31 104.485 42.614C104.996 43.906 105.457 45.237 105.855 46.571C105.947 46.884 105.772 47.215 105.461 47.308C105.405 47.325 105.348 47.333 105.292 47.333C105.4 47.333 104.807 47.168 104.73 46.912ZM106.686 68.149C107.6 68.206 107.219 68.513 107.164 68.834C106.926 70.209 106.626 71.586 106.273 72.927C106.203 73.192 105.965 73.367 105.706 73.367C105.656 73.367 105.605 73.361 105.554 73.347C105.241 73.263 105.55 72.939 105.138 72.623C105.483 71.316 105.775 69.973 106.7 68.631C106.63 68.309 106.361 68.96 106.686 68.149ZM110.62 91.654C110.233 91.376 110.594 91.291 110.87 91.462C111.146 91.634 111.231 91.999 111.6 92.277C110.339 93.453 109.564 94.624 108.757 95.756C108.643 95.918 108.463 96.3 108.28 96.3C108.161 96.3 108.42 95.967 107.938 95.892C107.675 95.702 107.614 95.332 107.804 95.66C108.595 93.955 109.355 92.808 110.62 91.654ZM117.577 72.704C117.854 71.371 118.87 70.13 118.271 68.666C118.315 68.343 118.602 68.116 118.933 68.161C119.254 68.206 119.478 68.504 119.434 68.828C119.246 70.201 119.8 71.587 118.726 72.946C118.668 73.226 118.424 73.417 118.152 73.417C118.113 73.417 118.72 73.413 118.31 73.405C117.714 73.338 117.511 73.25 117.577 72.704Z" fill="#FFB534"/>
</svg>
