<svg width="65" height="52" viewBox="0 0 65 52" fill="none" xmlns="http://www.w3.org/2000/svg">
<g clip-path="url(#clip0_9_2)">
<path fill-rule="evenodd" clip-rule="evenodd" d="M1.75001 0.000115689C2.09272 0.00308009 2.42689 0.107506 2.71033 0.300165C2.99378 0.492823 3.21379 0.765066 3.34266 1.08264C3.47153 1.4002 3.50349 1.74889 3.43446 2.08459C3.36542 2.42028 3.19845 2.72792 2.95472 2.96887C2.71099 3.20981 2.40142 3.37318 2.06495 3.43835C1.72848 3.50352 1.38028 3.46759 1.06422 3.33508C0.748149 3.20256 0.478335 2.97948 0.288947 2.69384C0.0995601 2.4082 -0.000967827 2.07282 7.02337e-06 1.7301C0.00291607 1.2687 0.188842 0.827306 0.516975 0.502923C0.845107 0.178541 1.28861 -0.00227869 1.75001 0.000115689V0.000115689ZM14.0501 0.000115689C14.3918 0.00701318 14.724 0.114677 15.0048 0.309686C15.2855 0.504695 15.5024 0.778322 15.6282 1.09618C15.754 1.41405 15.7832 1.76208 15.7119 2.09643C15.6407 2.43078 15.4723 2.73663 15.2278 2.97558C14.9833 3.21453 14.6737 3.37585 14.3378 3.43945C14.0019 3.50304 13.6546 3.46605 13.3397 3.333C13.0248 3.19995 12.7563 2.97681 12.5678 2.69164C12.3792 2.40648 12.2791 2.07195 12.28 1.7301C12.2826 1.50028 12.3304 1.2732 12.4208 1.06188C12.5112 0.850562 12.6423 0.659177 12.8066 0.498529C12.971 0.33788 13.1655 0.211118 13.3788 0.125604C13.5921 0.0400901 13.8202 -0.00252581 14.0501 0.000115689ZM26.34 0.000115689C26.6827 0.00308009 27.0169 0.107506 27.3003 0.300165C27.5837 0.492823 27.8038 0.765066 27.9326 1.08264C28.0615 1.4002 28.0935 1.74889 28.0244 2.08459C27.9554 2.42028 27.7885 2.72792 27.5448 2.96887C27.3011 3.20981 26.9914 3.37318 26.6549 3.43835C26.3184 3.50352 25.9702 3.46759 25.6542 3.33508C25.3381 3.20256 25.0683 2.97948 24.8789 2.69384C24.6895 2.4082 24.589 2.07282 24.59 1.7301C24.5929 1.2687 24.7788 0.827306 25.1069 0.502923C25.4351 0.178541 25.8786 -0.00227869 26.34 0.000115689V0.000115689ZM38.66 0.000115689C39.0028 0.00308009 39.3369 0.107506 39.6204 0.300165C39.9038 0.492823 40.1238 0.765066 40.2527 1.08264C40.3816 1.4002 40.4135 1.74889 40.3445 2.08459C40.2755 2.42028 40.1085 2.72792 39.8648 2.96887C39.621 3.20981 39.3115 3.37318 38.975 3.43835C38.6385 3.50352 38.2902 3.46759 37.9741 3.33508C37.6581 3.20256 37.3884 2.97948 37.199 2.69384C37.0096 2.4082 36.9091 2.07282 36.91 1.7301C36.9148 1.26928 37.1012 0.828986 37.429 0.504999C37.7567 0.181011 38.1992 -0.000436022 38.66 0.000115689V0.000115689ZM50.95 0.000115689C51.2922 0.00504916 51.6254 0.111086 51.9075 0.304925C52.1896 0.498764 52.4081 0.771749 52.5354 1.08947C52.6628 1.40719 52.6933 1.75542 52.6232 2.09045C52.553 2.42547 52.3854 2.73234 52.1412 2.97228C51.8971 3.21223 51.5875 3.37458 51.2514 3.43896C50.9152 3.50334 50.5674 3.46689 50.252 3.3341C49.9365 3.20131 49.6672 2.97815 49.4783 2.69274C49.2893 2.40734 49.189 2.07239 49.1899 1.7301C49.1957 1.26787 49.3841 0.826725 49.7138 0.502679C50.0434 0.178633 50.4877 -0.00203148 50.95 0.000115689V0.000115689ZM63.25 0.000115689C63.5927 0.00308009 63.9269 0.107506 64.2103 0.300165C64.4938 0.492823 64.7138 0.765066 64.8427 1.08264C64.9715 1.4002 65.0035 1.74889 64.9345 2.08459C64.8654 2.42028 64.6984 2.72792 64.4547 2.96887C64.211 3.20981 63.9014 3.37318 63.5649 3.43835C63.2285 3.50352 62.8803 3.46759 62.5642 3.33508C62.2481 3.20256 61.9783 2.97948 61.7889 2.69384C61.5996 2.4082 61.499 2.07282 61.5 1.7301C61.5029 1.2687 61.6888 0.827306 62.017 0.502923C62.3451 0.178541 62.7886 -0.00227869 63.25 0.000115689V0.000115689ZM1.75001 12.1201C2.09229 12.1231 2.426 12.2272 2.70924 12.4194C2.99247 12.6116 3.21251 12.8833 3.34168 13.2003C3.47085 13.5173 3.50341 13.8655 3.43519 14.2009C3.36696 14.5363 3.20099 14.8441 2.95826 15.0854C2.71553 15.3268 2.40687 15.4909 2.07105 15.5572C1.73524 15.6235 1.3873 15.589 1.07105 15.458C0.754808 15.327 0.484419 15.1054 0.29383 14.821C0.103242 14.5367 0.00100627 14.2024 7.02337e-06 13.8601C0.000399721 13.6309 0.0459544 13.404 0.134162 13.1924C0.22237 12.9808 0.35149 12.7887 0.514045 12.6271C0.6766 12.4654 0.869467 12.3375 1.08155 12.2505C1.29363 12.1635 1.52078 12.1192 1.75001 12.1201V12.1201ZM14.0501 12.1201C14.3914 12.127 14.7231 12.2345 15.0037 12.4291C15.2842 12.6236 15.5012 12.8966 15.6273 13.2139C15.7534 13.5311 15.7831 13.8787 15.7127 14.2128C15.6422 14.5468 15.4748 14.8527 15.2313 15.092C14.9878 15.3314 14.6791 15.4936 14.3439 15.5583C14.0086 15.6231 13.6618 15.5874 13.3467 15.4559C13.0316 15.3244 12.7623 15.1028 12.5725 14.819C12.3828 14.5351 12.2811 14.2015 12.28 13.8601C12.2816 13.6295 12.3286 13.4016 12.4185 13.1892C12.5083 12.9768 12.6393 12.7843 12.8037 12.6227C12.9682 12.461 13.163 12.3334 13.3768 12.2472C13.5907 12.161 13.8195 12.1177 14.0501 12.1201V12.1201ZM26.34 12.1201C26.6823 12.1231 27.0161 12.2272 27.2993 12.4194C27.5826 12.6116 27.8026 12.8833 27.9318 13.2003C28.0609 13.5173 28.0934 13.8655 28.0252 14.2009C27.9569 14.5363 27.7911 14.8441 27.5483 15.0854C27.3056 15.3268 26.9968 15.4909 26.661 15.5572C26.3252 15.6235 25.9774 15.589 25.6611 15.458C25.3449 15.327 25.0744 15.1054 24.8838 14.821C24.6932 14.5367 24.591 14.2024 24.59 13.8601C24.5904 13.6309 24.636 13.404 24.7243 13.1924C24.8125 12.9808 24.9415 12.7887 25.104 12.6271C25.2666 12.4654 25.4594 12.3375 25.6715 12.2505C25.8836 12.1635 26.1107 12.1192 26.34 12.1201V12.1201ZM38.66 12.1201C39.0023 12.1231 39.336 12.2272 39.6193 12.4194C39.9025 12.6116 40.1225 12.8833 40.2517 13.2003C40.3809 13.5173 40.4134 13.8655 40.3452 14.2009C40.277 14.5363 40.111 14.8441 39.8683 15.0854C39.6256 15.3268 39.3169 15.4909 38.9811 15.5572C38.6453 15.6235 38.2973 15.589 37.9811 15.458C37.6648 15.327 37.3945 15.1054 37.2039 14.821C37.0133 14.5367 36.911 14.2024 36.91 13.8601C36.9127 13.3977 37.0981 12.9552 37.426 12.6291C37.7539 12.3031 38.1976 12.1201 38.66 12.1201V12.1201ZM50.95 12.1201C51.2918 12.125 51.6246 12.2308 51.9065 12.4242C52.1884 12.6176 52.4069 12.89 52.5346 13.2071C52.6622 13.5243 52.6932 13.872 52.6239 14.2068C52.5546 14.5415 52.3879 14.8484 52.1448 15.0887C51.9017 15.3291 51.593 15.4922 51.2575 15.5577C50.9219 15.6232 50.5746 15.5882 50.2589 15.4569C49.9433 15.3256 49.6733 15.1042 49.4832 14.8201C49.293 14.536 49.191 14.202 49.1899 13.8601C49.1936 13.3963 49.381 12.9529 49.7108 12.6268C50.0407 12.3007 50.4861 12.1185 50.95 12.1201V12.1201ZM63.25 12.1201C63.5923 12.1231 63.926 12.2272 64.2092 12.4194C64.4925 12.6116 64.7125 12.8833 64.8417 13.2003C64.9709 13.5173 65.0034 13.8655 64.9352 14.2009C64.867 14.5363 64.701 14.8441 64.4583 15.0854C64.2155 15.3268 63.9069 15.4909 63.5711 15.5572C63.2352 15.6235 62.8873 15.589 62.5711 15.458C62.2548 15.327 61.9844 15.1054 61.7938 14.821C61.6032 14.5367 61.501 14.2024 61.5 13.8601C61.5004 13.6309 61.546 13.404 61.6342 13.1924C61.7224 12.9808 61.8515 12.7887 62.014 12.6271C62.1766 12.4654 62.3695 12.3375 62.5816 12.2505C62.7936 12.1635 63.0208 12.1192 63.25 12.1201V12.1201ZM1.75001 24.2801C2.08885 24.2861 2.41839 24.3919 2.69727 24.5845C2.97615 24.777 3.19192 25.0477 3.31751 25.3624C3.44311 25.6772 3.47292 26.022 3.40321 26.3536C3.33349 26.6853 3.16736 26.989 2.92567 27.2266C2.68397 27.4641 2.37749 27.625 2.04468 27.689C1.71188 27.7529 1.36761 27.7172 1.05506 27.5862C0.742516 27.4552 0.475674 27.2347 0.287971 26.9525C0.100268 26.6703 5.85765e-05 26.339 7.02337e-06 26.0001C0.00170579 25.7722 0.0482974 25.5469 0.137214 25.337C0.226131 25.1272 0.355638 24.9369 0.518196 24.7771C0.680753 24.6173 0.873226 24.4912 1.0846 24.4059C1.29598 24.3206 1.52209 24.2779 1.75001 24.2801V24.2801ZM14.0501 24.2801C14.3882 24.2898 14.716 24.3988 14.9926 24.5937C15.2691 24.7887 15.482 25.0607 15.6047 25.376C15.7275 25.6912 15.7545 26.0356 15.6826 26.3662C15.6107 26.6968 15.4429 26.9988 15.2003 27.2346C14.9577 27.4704 14.651 27.6295 14.3185 27.6919C13.986 27.7543 13.6425 27.7173 13.3309 27.5856C13.0193 27.4538 12.7534 27.2333 12.5665 26.9513C12.3796 26.6693 12.28 26.3384 12.28 26.0001C12.2829 25.7708 12.3309 25.5444 12.4215 25.3337C12.5121 25.1231 12.6434 24.9324 12.8079 24.7726C12.9723 24.6128 13.1667 24.487 13.3799 24.4025C13.593 24.3179 13.8208 24.2764 14.0501 24.2801V24.2801ZM26.34 24.2801C26.6788 24.2861 27.0084 24.3919 27.2872 24.5845C27.5661 24.777 27.7819 25.0477 27.9075 25.3624C28.0331 25.6772 28.0629 26.022 27.9932 26.3536C27.9235 26.6853 27.7573 26.989 27.5156 27.2266C27.2739 27.4641 26.9675 27.625 26.6347 27.689C26.3018 27.7529 25.9576 27.7172 25.645 27.5862C25.3325 27.4552 25.0656 27.2347 24.8779 26.9525C24.6902 26.6703 24.59 26.339 24.59 26.0001C24.5917 25.7722 24.6384 25.5469 24.7273 25.337C24.8162 25.1272 24.9456 24.9369 25.1082 24.7771C25.2707 24.6173 25.4632 24.4912 25.6746 24.4059C25.8859 24.3206 26.1121 24.2779 26.34 24.2801V24.2801ZM38.66 24.2801C38.9989 24.2861 39.3284 24.3919 39.6073 24.5845C39.8862 24.777 40.102 25.0477 40.2275 25.3624C40.3531 25.6772 40.383 26.022 40.3132 26.3536C40.2435 26.6853 40.0774 26.989 39.8357 27.2266C39.594 27.4641 39.2875 27.625 38.9547 27.689C38.6219 27.7529 38.2776 27.7172 37.9651 27.5862C37.6526 27.4552 37.3856 27.2347 37.1979 26.9525C37.0102 26.6703 36.9101 26.339 36.91 26.0001C36.9151 25.5403 37.102 25.1011 37.4299 24.7788C37.7579 24.4565 38.2002 24.2772 38.66 24.2801V24.2801ZM50.95 24.2801C51.2883 24.288 51.6169 24.3955 51.8944 24.5892C52.172 24.7829 52.3862 25.0542 52.5103 25.3691C52.6343 25.684 52.6627 26.0285 52.5919 26.3595C52.5211 26.6905 52.3543 26.9932 52.1122 27.2297C51.8701 27.4663 51.5636 27.6263 51.2311 27.6894C50.8986 27.7526 50.5549 27.7162 50.2429 27.585C49.931 27.4537 49.6646 27.2333 49.4773 26.9514C49.29 26.6695 49.19 26.3386 49.1899 26.0001C49.1963 25.539 49.385 25.0991 49.7149 24.7767C50.0447 24.4544 50.4888 24.2759 50.95 24.2801V24.2801ZM63.25 24.2801C63.5889 24.2861 63.9184 24.3919 64.1973 24.5845C64.4762 24.777 64.6919 25.0477 64.8175 25.3624C64.9431 25.6772 64.9729 26.022 64.9032 26.3536C64.8335 26.6853 64.6674 26.989 64.4257 27.2266C64.184 27.4641 63.8775 27.625 63.5447 27.689C63.2119 27.7529 62.8676 27.7172 62.5551 27.5862C62.2425 27.4552 61.9757 27.2347 61.788 26.9525C61.6003 26.6703 61.5001 26.339 61.5 26.0001C61.5017 25.7722 61.5483 25.5469 61.6372 25.337C61.7261 25.1272 61.8556 24.9369 62.0182 24.7771C62.1808 24.6173 62.3732 24.4912 62.5846 24.4059C62.796 24.3206 63.0221 24.2779 63.25 24.2801V24.2801ZM1.75001 36.4101C2.09129 36.4141 2.42372 36.5188 2.70557 36.7113C2.98743 36.9038 3.20611 37.1754 3.33399 37.4918C3.46187 37.8083 3.49332 38.1555 3.42432 38.4897C3.35533 38.824 3.18902 39.1304 2.9463 39.3704C2.70357 39.6103 2.39522 39.7731 2.06019 39.8382C1.72516 39.9034 1.37844 39.8679 1.06348 39.7364C0.748531 39.6049 0.479516 39.3832 0.29029 39.0991C0.101065 38.8151 2.98318e-05 38.4814 7.02337e-06 38.1401C0.00065752 37.9114 0.0464717 37.6851 0.134895 37.4742C0.223318 37.2633 0.35263 37.072 0.515266 36.9112C0.677901 36.7505 0.870741 36.6233 1.08265 36.5373C1.29456 36.4514 1.52132 36.4082 1.75001 36.4101V36.4101ZM14.0501 36.4101C14.3904 36.418 14.7208 36.5261 15 36.7209C15.2792 36.9158 15.4947 37.1886 15.6195 37.5054C15.7443 37.8221 15.773 38.1685 15.7018 38.5015C15.6306 38.8344 15.4627 39.1389 15.2192 39.3768C14.9758 39.6148 14.6675 39.7757 14.333 39.8392C13.9986 39.9028 13.6528 39.8663 13.339 39.7342C13.0252 39.6022 12.7574 39.3805 12.569 39.0969C12.3806 38.8134 12.2801 38.4806 12.28 38.1401C12.2819 37.9101 12.3291 37.6826 12.4192 37.4709C12.5093 37.2593 12.6404 37.0675 12.8049 36.9067C12.9695 36.7459 13.1641 36.6193 13.3778 36.534C13.5915 36.4488 13.82 36.4067 14.0501 36.4101V36.4101ZM26.34 36.4101C26.6813 36.4141 27.0138 36.5188 27.2957 36.7113C27.5775 36.9038 27.7961 37.1754 27.924 37.4918C28.0518 37.8083 28.0833 38.1555 28.0143 38.4897C27.9453 38.824 27.779 39.1304 27.5363 39.3704C27.2935 39.6103 26.9853 39.7731 26.6503 39.8382C26.3152 39.9034 25.9684 39.8679 25.6535 39.7364C25.3385 39.6049 25.0695 39.3832 24.8803 39.0991C24.691 38.8151 24.59 38.4814 24.59 38.1401C24.5906 37.9114 24.6366 37.6851 24.725 37.4742C24.8134 37.2633 24.9426 37.072 25.1052 36.9112C25.2679 36.7505 25.4607 36.6233 25.6726 36.5373C25.8845 36.4514 26.1113 36.4082 26.34 36.4101V36.4101ZM38.66 36.4101C39.0013 36.4141 39.3338 36.5188 39.6156 36.7113C39.8975 36.9038 40.1161 37.1754 40.244 37.4918C40.3719 37.8083 40.4032 38.1555 40.3342 38.4897C40.2652 38.824 40.0989 39.1304 39.8562 39.3704C39.6135 39.6103 39.3053 39.7731 38.9702 39.8382C38.6352 39.9034 38.2883 39.8679 37.9734 39.7364C37.6584 39.6049 37.3894 39.3832 37.2002 39.0991C37.011 38.8151 36.9101 38.4814 36.91 38.1401C36.913 37.6787 37.0989 37.2373 37.427 36.913C37.7551 36.5886 38.1986 36.4078 38.66 36.4101V36.4101ZM50.95 36.4101C51.2908 36.4161 51.6223 36.5225 51.9028 36.7162C52.1834 36.9098 52.4004 37.1821 52.5267 37.4986C52.6531 37.8152 52.6831 38.162 52.613 38.4956C52.5429 38.8292 52.3758 39.1347 52.1327 39.3736C51.8896 39.6126 51.5813 39.7744 51.2466 39.8387C50.9118 39.9031 50.5656 39.8671 50.2512 39.7353C49.9369 39.6036 49.6684 39.3818 49.4796 39.098C49.2908 38.8142 49.19 38.481 49.1899 38.1401C49.1942 37.6774 49.382 37.2353 49.712 36.9109C50.0421 36.5865 50.4872 36.4064 50.95 36.4101V36.4101ZM63.25 36.4101C63.5913 36.4141 63.9237 36.5188 64.2056 36.7113C64.4874 36.9038 64.7061 37.1754 64.834 37.4918C64.9619 37.8083 64.9933 38.1555 64.9243 38.4897C64.8553 38.824 64.689 39.1304 64.4463 39.3704C64.2036 39.6103 63.8952 39.7731 63.5602 39.8382C63.2252 39.9034 62.8784 39.8679 62.5635 39.7364C62.2485 39.6049 61.9795 39.3832 61.7903 39.0991C61.6011 38.8151 61.5 38.4814 61.5 38.1401C61.5007 37.9114 61.5465 37.6851 61.6349 37.4742C61.7233 37.2633 61.8526 37.072 62.0153 36.9112C62.1779 36.7505 62.3707 36.6233 62.5826 36.5373C62.7946 36.4514 63.0213 36.4082 63.25 36.4101V36.4101ZM1.75001 48.5301C2.09229 48.5331 2.426 48.6372 2.70924 48.8295C2.99247 49.0217 3.21251 49.2934 3.34168 49.6103C3.47085 49.9273 3.50341 50.2754 3.43519 50.6108C3.36696 50.9463 3.20099 51.254 2.95826 51.4954C2.71553 51.7367 2.40687 51.9009 2.07105 51.9672C1.73524 52.0335 1.3873 51.999 1.07105 51.868C0.754808 51.7371 0.484419 51.5154 0.29383 51.2311C0.103242 50.9467 0.00100627 50.6124 7.02337e-06 50.2701C0.000399721 50.0409 0.0459544 49.814 0.134162 49.6024C0.22237 49.3908 0.35149 49.1987 0.514045 49.0371C0.6766 48.8755 0.869467 48.7475 1.08155 48.6605C1.29363 48.5735 1.52078 48.5292 1.75001 48.5301V48.5301ZM14.0501 48.5301C14.3914 48.537 14.7231 48.6444 15.0037 48.839C15.2842 49.0335 15.5012 49.3066 15.6273 49.6239C15.7534 49.9412 15.7831 50.2886 15.7127 50.6227C15.6422 50.9568 15.4748 51.2627 15.2313 51.5021C14.9878 51.7414 14.6791 51.9035 14.3439 51.9683C14.0086 52.033 13.6618 51.9974 13.3467 51.8658C13.0316 51.7343 12.7623 51.5127 12.5725 51.2289C12.3828 50.945 12.2811 50.6116 12.28 50.2701C12.2816 50.0395 12.3286 49.8115 12.4185 49.5991C12.5083 49.3868 12.6393 49.1942 12.8037 49.0326C12.9682 48.8709 13.163 48.7433 13.3768 48.6571C13.5907 48.5709 13.8195 48.5278 14.0501 48.5301V48.5301ZM26.34 48.5301C26.6823 48.5331 27.0161 48.6372 27.2993 48.8295C27.5826 49.0217 27.8026 49.2934 27.9318 49.6103C28.0609 49.9273 28.0934 50.2754 28.0252 50.6108C27.9569 50.9463 27.7911 51.254 27.5483 51.4954C27.3056 51.7367 26.9968 51.9009 26.661 51.9672C26.3252 52.0335 25.9774 51.999 25.6611 51.868C25.3449 51.7371 25.0744 51.5154 24.8838 51.2311C24.6932 50.9467 24.591 50.6124 24.59 50.2701C24.5904 50.0409 24.636 49.814 24.7243 49.6024C24.8125 49.3908 24.9415 49.1987 25.104 49.0371C25.2666 48.8755 25.4594 48.7475 25.6715 48.6605C25.8836 48.5735 26.1107 48.5292 26.34 48.5301V48.5301ZM38.66 48.5301C39.0023 48.5331 39.336 48.6372 39.6193 48.8295C39.9025 49.0217 40.1225 49.2934 40.2517 49.6103C40.3809 49.9273 40.4134 50.2754 40.3452 50.6108C40.277 50.9463 40.111 51.254 39.8683 51.4954C39.6256 51.7367 39.3169 51.9009 38.9811 51.9672C38.6453 52.0335 38.2973 51.999 37.9811 51.868C37.6648 51.7371 37.3945 51.5154 37.2039 51.2311C37.0133 50.9467 36.911 50.6124 36.91 50.2701C36.9127 49.8077 37.0981 49.3652 37.426 49.0392C37.7539 48.7131 38.1976 48.5301 38.66 48.5301V48.5301ZM50.95 48.5301C51.2918 48.5351 51.6246 48.6408 51.9065 48.8342C52.1884 49.0276 52.4069 49.3 52.5346 49.6172C52.6622 49.9343 52.6932 50.2821 52.6239 50.6168C52.5546 50.9516 52.3879 51.2584 52.1448 51.4988C51.9017 51.7391 51.593 51.9023 51.2575 51.9678C50.9219 52.0333 50.5746 51.9982 50.2589 51.8669C49.9433 51.7357 49.6733 51.5141 49.4832 51.23C49.293 50.9459 49.191 50.612 49.1899 50.2701C49.1936 49.8063 49.381 49.3628 49.7108 49.0367C50.0407 48.7106 50.4861 48.5285 50.95 48.5301V48.5301ZM63.25 48.5301C63.5923 48.5331 63.926 48.6372 64.2092 48.8295C64.4925 49.0217 64.7125 49.2934 64.8417 49.6103C64.9709 49.9273 65.0034 50.2754 64.9352 50.6108C64.867 50.9463 64.701 51.254 64.4583 51.4954C64.2155 51.7367 63.9069 51.9009 63.5711 51.9672C63.2352 52.0335 62.8873 51.999 62.5711 51.868C62.2548 51.7371 61.9844 51.5154 61.7938 51.2311C61.6032 50.9467 61.501 50.6124 61.5 50.2701C61.5004 50.0409 61.546 49.814 61.6342 49.6024C61.7224 49.3908 61.8515 49.1987 62.014 49.0371C62.1766 48.8755 62.3695 48.7475 62.5816 48.6605C62.7936 48.5735 63.0208 48.5292 63.25 48.5301V48.5301Z" fill="#FE3E57"/>
</g>
<defs>
<clipPath id="clip0_9_2">
<rect width="65" height="52" fill="white"/>
</clipPath>
</defs>
</svg>
