<?xml version="1.0" encoding="utf-8"?><svg viewBox="0 0 512 512" xmlns="http://www.w3.org/2000/svg" xmlns:xlink="http://www.w3.org/1999/xlink"><style>:root>svg{display:none}:root>svg:target{display:block}</style><svg viewBox="0 0 22 20" id="cart" xmlns="http://www.w3.org/2000/svg"><g clip-path="url(#aclip0_2_12)"><path fill-rule="evenodd" clip-rule="evenodd" d="M21.993 4.718l-2.003 8.038a.822.822 0 01-.799.62H6.378a.821.821 0 01-.8-.627L2.903 1.633H.836C.382 1.633.13 1.268.13.816.13.365.382 0 .836 0h2.716c.381 0 .712.259.801.626L5.94 3.704h15.254c.253 0 .492.116.648.476.156.036.688.294.151.538zm-16.506.621l1.793 6.402h11.267l1.595-6.402H5.487zm1.989 9.209a2.736 2.736 0 012.743 2.724 2.737 2.737 0 01-2.743 2.725c-1.513 0-2.744-1.222-2.744-2.725 0-1.502 1.231-2.724 2.744-2.724zm0 3.815c1.334 0 1.097-.49 1.097-1.091 0-.6.237-1.089-1.097-1.089-.605 0-1.098.489-1.098 1.089 0 .601.493 1.091 1.098 1.091zm9.959-3.815c1.513 0 2.744 1.222 2.744 2.724 0 1.503-1.231 2.725-2.744 2.725a2.737 2.737 0 01-2.743-2.725 2.736 2.736 0 012.743-2.724zm0 3.815c.965 0 1.098-.49 1.098-1.091 0-.6-.133-1.089-1.098-1.089-.605 0-1.097.489-1.097 1.089 0 .601.492 1.091 1.097 1.091z"/></g><defs><clipPath id="aclip0_2_12"><path d="M0 0h22v20H0z"/></clipPath></defs></svg><svg aria-hidden="true" data-prefix="fab" data-icon="facebook-f" class="bsvg-inline--fa bfa-facebook-f bfa-w-10" viewBox="0 0 320 512" id="facebook" xmlns="http://www.w3.org/2000/svg"><path d="M279.14 288l14.22-92.66h-88.91v-60.13c0-25.35 12.42-50.06 52.24-50.06h40.42V6.26S260.43 0 225.36 0c-73.22 0-121.08 44.38-121.08 124.72v70.62H22.89V288h81.39v224h100.17V288z"/></svg><svg aria-hidden="true" data-prefix="fab" data-icon="google" class="csvg-inline--fa cfa-google cfa-w-16" viewBox="0 0 488 512" id="google" xmlns="http://www.w3.org/2000/svg"><path d="M488 261.8C488 403.3 391.1 504 248 504 110.8 504 0 393.2 0 256S110.8 8 248 8c66.8 0 123 24.5 166.3 64.9l-67.5 64.9C258.5 52.6 94.3 116.6 94.3 256c0 86.5 69.1 156.6 153.7 156.6 98.2 0 135-70.4 140.8-106.9H248v-85.3h236.1c2.3 12.7 3.9 24.9 3.9 41.4z"/></svg><svg viewBox="0 0 21 20" id="heart" xmlns="http://www.w3.org/2000/svg"><path fill-rule="evenodd" clip-rule="evenodd" d="M19.778 4.588C19.96 2.169 17.95.726 15.605.217c-1.703.16-3.747 0-5.335 1.612C8.196.259 6.152.292 4.448.259 2.958.811.957 2.254.275 4.63.192 6.201.234 8.747 2.234 11.845c1.107 1.4 3.216 3.396 4.216 4.966 2.683 3.014 3.108 3.182 3.491 3.182h.749-.578c.383 0 .766-.168 3.449-3.224a229.284 229.284 0 004.215-4.967c2.47-3.097 2.47-5.644 2.002-7.214zm-3.279 6.196c-1.959 2.461-5.323 6.324-6.229 7.385-1.393-1.061-4.757-4.924-6.716-7.385C1.936 8.79 1.34 6.837 1.851 5.97c.511-2.655 2.001-3.716 3.108-4.098 1.235-.467 2.896.538 4.429 1.655a.846.846 0 001.064.127c.086-.042.171-.085.213-.17 1.533-1.074 3.194-2.079 5.275-1.655.261.425 1.751 1.486 2.262 4.141.511.825-.085 2.82-1.703 4.814z"/></svg><svg aria-hidden="true" data-prefix="fab" data-icon="linkedin-in" class="esvg-inline--fa efa-linkedin-in efa-w-14" viewBox="0 0 448 512" id="linkedin" xmlns="http://www.w3.org/2000/svg"><path d="M100.28 448H7.4V148.9h92.88zM53.79 108.1C24.09 108.1 0 83.5 0 53.8a53.79 53.79 0 01107.58 0c0 29.7-24.1 54.3-53.79 54.3zM447.9 448h-92.68V302.4c0-34.7-.7-79.2-48.29-79.2-48.29 0-55.69 37.7-55.69 76.7V448h-92.78V148.9h89.08v40.8h1.3c12.4-23.5 42.69-48.3 87.88-48.3 94 0 111.28 61.9 111.28 142.3V448z"/></svg><svg aria-hidden="true" data-prefix="fab" data-icon="pinterest-p" class="fsvg-inline--fa ffa-pinterest-p ffa-w-12" viewBox="0 0 384 512" id="pinterest" xmlns="http://www.w3.org/2000/svg"><path d="M204 6.5C101.4 6.5 0 74.9 0 185.6 0 256 39.6 296 63.6 296c9.9 0 15.6-27.6 15.6-35.4 0-9.3-23.7-29.1-23.7-67.8 0-80.4 61.2-137.4 140.4-137.4 68.1 0 118.5 38.7 118.5 109.8 0 53.1-21.3 152.7-90.3 152.7-24.9 0-46.2-18-46.2-43.8 0-37.8 26.4-74.4 26.4-113.4 0-66.2-93.9-54.2-93.9 25.8 0 16.8 2.1 35.4 9.6 50.7-13.8 59.4-42 147.9-42 209.1 0 18.9 2.7 37.5 4.5 56.4 3.4 3.8 1.7 3.4 6.9 1.5 50.4-69 48.6-82.5 71.4-172.8 12.3 23.4 44.1 36 69.3 36 106.2 0 153.9-103.5 153.9-196.8C384 71.3 298.2 6.5 204 6.5z"/></svg><svg viewBox="0 0 21 20" id="search" xmlns="http://www.w3.org/2000/svg"><g clip-path="url(#gclip0_4_19)"><path fill-rule="evenodd" clip-rule="evenodd" d="M19.891 18.696l-5.071-5.81c.364-1.361 1.027-3.09 1.027-4.973C15.847 3.547 12.295.3 7.93.3S.14 3.547.14 7.913c0 4.365 3.425 7.916 7.79 7.916 1.883 0 3.613-.663 4.973-1.179l5.81 5.224c.163.496.427.496.589 0l.589-.589c.649-.163.649-.426 0-.589zM7.93 14.163a6.257 6.257 0 01-6.25-6.25 6.257 6.257 0 016.25-6.25 6.257 6.257 0 016.25 6.25 6.256 6.256 0 01-6.25 6.25z"/></g><defs><clipPath id="gclip0_4_19"><path d="M0 0h21v20H0z"/></clipPath></defs></svg><svg aria-hidden="true" data-prefix="fab" data-icon="twitter" class="hsvg-inline--fa hfa-twitter hfa-w-16" viewBox="0 0 512 512" id="twitter" xmlns="http://www.w3.org/2000/svg"><path d="M459.37 151.716c.325 4.548.325 9.097.325 13.645 0 138.72-105.583 298.558-298.558 298.558-59.452 0-114.68-17.219-161.137-47.106 8.447.974 16.568 1.299 25.34 1.299 49.055 0 94.213-16.568 130.274-44.832-46.132-.975-84.792-31.188-98.112-72.772 6.498.974 12.995 1.624 19.818 1.624 9.421 0 18.843-1.3 27.614-3.573-48.081-9.747-84.143-51.98-84.143-102.985v-1.299c13.969 7.797 30.214 12.67 47.431 13.319-28.264-18.843-46.781-51.005-46.781-87.391 0-19.492 5.197-37.36 14.294-52.954 51.655 63.675 129.3 105.258 216.365 109.807-1.624-7.797-2.599-15.918-2.599-24.04 0-57.828 46.782-104.934 104.934-104.934 30.213 0 57.502 12.67 76.67 33.137 23.715-4.548 46.456-13.32 66.599-25.34-7.798 24.366-24.366 44.833-46.132 57.827 21.117-2.273 41.584-8.122 60.426-16.243-14.292 20.791-32.161 39.308-52.628 54.253z"/></svg><svg viewBox="0 0 20 20" id="user" xmlns="http://www.w3.org/2000/svg"><path fill-rule="evenodd" clip-rule="evenodd" d="M17.7 12.927c-1.719-1.089-3.015-1.607-4.43-2.383a5.78 5.78 0 002.511-4.764c0-3.189-2.594-5.68-5.782-5.68-3.187 0-5.781 2.491-5.781 5.68a5.78 5.78 0 002.51 4.764c-1.414.776-2.558 1.294-3.8 2.383C1.4 14.816 0 17.327 0 19.998h1.562c0-4.652 3.785-8.437 8.437-8.437 4.653 0 8.438 3.785 8.438 8.437h1.562c0-2.671-1.04-5.182-2.299-7.071zM5.781 5.78a4.223 4.223 0 014.218-4.219 4.223 4.223 0 014.219 4.219 4.223 4.223 0 01-4.219 4.218A4.223 4.223 0 015.781 5.78z"/></svg></svg>