<?xml version="1.0" encoding="utf-8"?><!DOCTYPE svg  PUBLIC '-//W3C//DTD SVG 1.1//EN'  'http://www.w3.org/Graphics/SVG/1.1/DTD/svg11.dtd'><svg viewBox="0 0 512 512" xmlns="http://www.w3.org/2000/svg" xmlns:xlink="http://www.w3.org/1999/xlink"><style>:root>svg{display:none}:root>svg:target{display:block}</style><svg viewBox="0 0 10 5" id="angle-down" xmlns="http://www.w3.org/2000/svg"><defs><style>.aacls-1{fill:#8d8d8d;fill-rule:evenodd}</style></defs><path id="aaangle_down" data-name="angle down" class="aacls-1" d="M1396.98 620a.728.728 0 01-.49-.179l-4.32-3.772a.567.567 0 010-.869.787.787 0 011 0l3.81 3.337 3.82-3.336a.771.771 0 01.99 0 .553.553 0 010 .868l-4.31 3.772a.767.767 0 01-.5.179zm0 0" transform="translate(-1392 -615)"/></svg><svg viewBox="0 0 10 20" id="angle-left-solid" xmlns="http://www.w3.org/2000/svg"><path d="M7.5 17.5c-.32 0-.64-.121-.883-.367l-6.25-6.25a1.247 1.247 0 010-1.766l6.25-6.25a1.247 1.247 0 011.766 0 1.247 1.247 0 010 1.766L3.016 10l5.367 5.367a1.24 1.24 0 010 1.766 1.233 1.233 0 01-.883.367zm0 0"/></svg><svg viewBox="0 0 9 10" id="angle-right" xmlns="http://www.w3.org/2000/svg"><defs><style>.accls-1{fill:#727272;fill-rule:evenodd}</style></defs><path id="acangle_right" class="accls-1" d="M975.907 320.768l-4.338-4.66a.279.279 0 00-.428 0l-.465.5a.331.331 0 000 .46l3.658 3.93-3.658 3.931a.322.322 0 00-.093.23.325.325 0 00.093.23l.465.5a.279.279 0 00.428 0l4.338-4.661A.326.326 0 00976 321a.33.33 0 00-.093-.23zm0 0l-3.482.23a.325.325 0 00-.093-.23l-4.332-4.66a.279.279 0 00-.428 0l-.466.5a.331.331 0 000 .46l3.658 3.93-3.658 3.931a.331.331 0 00-.093.23.334.334 0 00.093.23l.466.5a.279.279 0 00.428 0l4.337-4.661a.322.322 0 00.093-.23zm0 0" transform="translate(-967 -316)"/></svg><svg viewBox="0 0 10 20" id="angle-right-solid" xmlns="http://www.w3.org/2000/svg"><path d="M2.5 17.5c-.32 0-.64-.121-.883-.367a1.247 1.247 0 010-1.766L6.984 10 1.617 4.633a1.247 1.247 0 010-1.766 1.24 1.24 0 011.766 0l6.25 6.25a1.247 1.247 0 010 1.766l-6.25 6.25a1.233 1.233 0 01-.883.367zm0 0"/></svg><svg viewBox="0 0 4.969 9.97" id="angle_left" xmlns="http://www.w3.org/2000/svg"><defs><style>.aecls-1{fill:#8d8d8d;fill-rule:evenodd}</style></defs><path id="aeangle_left" class="aecls-1" d="M973.64 3013.16a.745.745 0 01.178-.49l3.741-4.28a.548.548 0 01.863 0 .762.762 0 010 .98l-3.311 3.79 3.31 3.79a.776.776 0 010 .99.56.56 0 01-.862 0l-3.741-4.28a.772.772 0 01-.178-.5zm0 0" transform="translate(-973.625 -3008.19)"/></svg><svg viewBox="0 0 5 10" id="angle_right" xmlns="http://www.w3.org/2000/svg"><defs><style>.afcls-1{fill:#8d8d8d;fill-rule:evenodd}</style></defs><path id="afangle_right" class="afcls-1" d="M1347 3013.18a.816.816 0 00-.17-.5l-3.77-4.29a.556.556 0 00-.87 0 .771.771 0 000 .99l3.33 3.8-3.33 3.8a.771.771 0 000 .99.568.568 0 00.87 0l3.77-4.3a.715.715 0 00.17-.49zm0 0" transform="translate(-1342 -3008.19)"/></svg><svg viewBox="0 0 10 8" id="arrow" xmlns="http://www.w3.org/2000/svg"><defs><style>.agcls-1{fill:#8d8d8d;fill-rule:evenodd}</style></defs><path id="agarrow" class="agcls-1" d="M910.836 6130.62l-3.609-3.47a.574.574 0 00-.774 0l-.327.32a.511.511 0 00-.16.37.534.534 0 00.16.38l2.105 2.03h-6.689a.518.518 0 00-.54.51v.45a.543.543 0 00.54.54h6.713l-2.129 2.04a.508.508 0 000 .74l.327.32a.6.6 0 00.387.15.556.556 0 00.387-.16l3.609-3.47a.507.507 0 00.164-.37.53.53 0 00-.16-.38" transform="translate(-901 -6127)"/></svg><svg viewBox="0 0 22 20" id="cart" xmlns="http://www.w3.org/2000/svg"><defs><style>.ahcls-1{fill:#29282d;fill-rule:evenodd}</style></defs><path id="ahcart_icon" class="ahcls-1" d="M1527.44 65a2.724 2.724 0 112.74-2.724 2.738 2.738 0 01-2.74 2.724zm0-3.814a1.09 1.09 0 101.09 1.09 1.094 1.094 0 00-1.09-1.093zm1.75-2.806h-12.81a.823.823 0 01-.8-.628l-2.68-11.115h-2.06a.817.817 0 110-1.634h2.71a.824.824 0 01.8.627l.74 3.078h16.1a.818.818 0 01.8 1.014l-2 8.038a.822.822 0 01-.8.617zm-12.16-1.635h11.52l1.59-6.4h-14.65zm.45 8.255a2.724 2.724 0 112.74-2.724 2.738 2.738 0 01-2.74 2.724zm0-3.814a1.09 1.09 0 101.09 1.09 1.094 1.094 0 00-1.09-1.093z" transform="translate(-1510 -45)"/></svg><svg aria-hidden="true" data-prefix="fas" data-icon="check" class="aisvg-inline--fa aifa-check aifa-w-16" viewBox="0 0 512 512" id="check" xmlns="http://www.w3.org/2000/svg"><path d="M173.898 439.404l-166.4-166.4c-9.997-9.997-9.997-26.206 0-36.204l36.203-36.204c9.997-9.998 26.207-9.998 36.204 0L192 312.69 432.095 72.596c9.997-9.997 26.207-9.997 36.204 0l36.203 36.204c9.997 9.997 9.997 26.206 0 36.204l-294.4 294.401c-9.998 9.997-26.207 9.997-36.204-.001z"/></svg><svg viewBox="0 0 20 20" id="check-size" xmlns="http://www.w3.org/2000/svg"><defs><style>.ajcls-1{fill:#fe3e57;fill-rule:evenodd}</style></defs><path id="ajcheckmark" class="ajcls-1" d="M422.071 1657.48a10 10 0 102.929 7.07 9.931 9.931 0 00-2.929-7.07zm-7.071 15.9a8.83 8.83 0 118.828-8.83 8.838 8.838 0 01-8.828 8.83zm3.949-12.04l-5.174 5.18-2.724-2.73a.587.587 0 10-.829.83l3.138 3.14a.59.59 0 00.829 0l5.588-5.59a.586.586 0 00-.828-.83z" transform="translate(-405 -1654.56)"/></svg><svg aria-hidden="true" data-prefix="fab" data-icon="facebook-f" class="aksvg-inline--fa akfa-facebook-f akfa-w-10" viewBox="0 0 320 512" id="facebook" xmlns="http://www.w3.org/2000/svg"><path d="M279.14 288l14.22-92.66h-88.91v-60.13c0-25.35 12.42-50.06 52.24-50.06h40.42V6.26S260.43 0 225.36 0c-73.22 0-121.08 44.38-121.08 124.72v70.62H22.89V288h81.39v224h100.17V288z"/></svg><svg aria-hidden="true" data-prefix="fab" data-icon="google" class="alsvg-inline--fa alfa-google alfa-w-16" viewBox="0 0 488 512" id="google" xmlns="http://www.w3.org/2000/svg"><path d="M488 261.8C488 403.3 391.1 504 248 504 110.8 504 0 393.2 0 256S110.8 8 248 8c66.8 0 123 24.5 166.3 64.9l-67.5 64.9C258.5 52.6 94.3 116.6 94.3 256c0 86.5 69.1 156.6 153.7 156.6 98.2 0 135-70.4 140.8-106.9H248v-85.3h236.1c2.3 12.7 3.9 24.9 3.9 41.4z"/></svg><svg viewBox="0 0 15 15" id="grid" xmlns="http://www.w3.org/2000/svg"><defs><style>.amcls-1{fill:#fe3e57;fill-rule:evenodd}</style></defs><path id="amgrid" class="amcls-1" d="M855 613.75h3.75V610H855v3.75zm5.625 11.25h3.75v-3.75h-3.75V625zM855 625h3.75v-3.75H855V625zm0-5.625h3.75v-3.75H855v3.75zm5.625 0h3.75v-3.75h-3.75v3.75zM866.25 610v3.75H870V610h-3.75zm-5.625 3.75h3.75V610h-3.75v3.75zm5.625 5.625H870v-3.75h-3.75v3.75zm0 5.625H870v-3.75h-3.75V625z" transform="translate(-855 -610)"/></svg><svg viewBox="0 0 20 20" id="heart" xmlns="http://www.w3.org/2000/svg"><defs><style>.ancls-1{fill:#29282d;fill-rule:evenodd}</style></defs><path id="anheart_icon" class="ancls-1" d="M1484.78 49.589a6.683 6.683 0 00-4.17-4.371c-1.71-.595-3.75 0-5.58 1.611-1.83-1.569-3.88-2.122-5.58-1.569a6.884 6.884 0 00-4.17 4.371c-.47 1.57-.51 4.117 1.95 7.215 1.11 1.4 2.82 3.4 4.22 4.965 2.68 3.014 3.11 3.183 3.49 3.183h.17c.39 0 .77-.168 3.45-3.224a224.86 224.86 0 004.22-4.966c2.47-3.098 2.47-5.645 2-7.215zm-3.28 6.2c-1.96 2.462-5.32 6.324-6.47 7.385-1.15-1.061-4.52-4.924-6.48-7.385-1.61-1.994-2.21-3.947-1.7-5.687a4.986 4.986 0 013.11-3.225c1.23-.467 2.9.169 4.43 1.655a.84.84 0 001.06.126.447.447 0 00.22-.17c1.53-1.443 3.19-2.079 4.42-1.655a5.168 5.168 0 013.11 3.268c.51 1.699-.08 3.689-1.7 5.683z" transform="translate(-1465.03 -45)"/></svg><svg viewBox="0 0 16 16" id="home-icon" xmlns="http://www.w3.org/2000/svg"><defs><style>.aocls-1{fill:#727272;fill-rule:evenodd}</style></defs><path id="aohome_icon" class="aocls-1" d="M893 310l-7.771 6.858a.665.665 0 00-.064.925.639.639 0 00.91.065l.286-.253v6.44a1.95 1.95 0 001.933 1.965h3.606v-5.274a1.138 1.138 0 011.128-1.146 1.138 1.138 0 011.128 1.146V326h3.544a1.95 1.95 0 001.934-1.965v-6.44l.286.253a.637.637 0 00.909-.065.663.663 0 00-.064-.925zm5.35 14.035a.65.65 0 01-.645.655h-2.256v-3.964a2.437 2.437 0 00-2.417-2.456 2.437 2.437 0 00-2.417 2.456v3.964h-2.32a.65.65 0 01-.645-.655v-7.578l5.35-4.722 5.35 4.722v7.578z" transform="translate(-885 -310)"/></svg><svg viewBox="0 0 512 512" id="inst" xmlns="http://www.w3.org/2000/svg"><path d="M343.193 22H168.32C87.854 22 23 86.863 23 166.958v174.079C23 421.137 87.854 487 168.32 487h174.873C423.66 487 490 421.137 490 341.037V166.958C490 86.863 423.66 22 343.193 22zM446 341.037C446 397.025 399.438 443 343.193 443H168.32C112.071 443 66 397.025 66 341.037V166.958C66 110.973 112.071 65 168.32 65h174.873C399.438 65 446 110.973 446 166.958v174.079z"/><path d="M255.756 137.947c-64.382 0-116.581 51.961-116.581 116.055 0 64.085 52.199 116.045 116.581 116.045 64.383 0 116.58-51.96 116.58-116.045 0-64.094-52.197-116.055-116.58-116.055zm0 188.584c-40.164 0-72.86-32.551-72.86-72.529 0-40.016 32.696-72.534 72.86-72.534 40.162 0 72.861 32.519 72.861 72.534 0 39.978-32.699 72.529-72.861 72.529zM381.08 113.779c-8.581 0-15.538 6.924-15.538 15.463 0 8.54 6.957 15.467 15.538 15.467 8.573 0 15.532-6.927 15.532-15.467 0-8.539-6.959-15.463-15.532-15.463z"/></svg><svg aria-hidden="true" data-prefix="fab" data-icon="linkedin-in" class="aqsvg-inline--fa aqfa-linkedin-in aqfa-w-14" viewBox="0 0 448 512" id="linkedin" xmlns="http://www.w3.org/2000/svg"><path d="M100.28 448H7.4V148.9h92.88zM53.79 108.1C24.09 108.1 0 83.5 0 53.8a53.79 53.79 0 01107.58 0c0 29.7-24.1 54.3-53.79 54.3zM447.9 448h-92.68V302.4c0-34.7-.7-79.2-48.29-79.2-48.29 0-55.69 37.7-55.69 76.7V448h-92.78V148.9h89.08v40.8h1.3c12.4-23.5 42.69-48.3 87.88-48.3 94 0 111.28 61.9 111.28 142.3V448z"/></svg><svg viewBox="0 0 20 15" id="list" xmlns="http://www.w3.org/2000/svg"><defs><style>.arcls-1{fill:#8d8d8d;fill-rule:evenodd}</style></defs><path id="arlist" class="arcls-1" d="M885.007 610h4.422v4.172h-4.422V610zm5.828 0h14.159v4.172h-14.159V610zm-5.828 5.413h4.422v4.172h-4.422v-4.172zm5.828 0h14.159v4.172h-14.159v-4.172zm-5.828 5.414h4.422V625h-4.422v-4.171zm5.828 0h14.159V625h-14.159v-4.171z" transform="translate(-885 -610)"/></svg><svg aria-hidden="true" data-prefix="fab" data-icon="pinterest-p" class="assvg-inline--fa asfa-pinterest-p asfa-w-12" viewBox="0 0 384 512" id="pinterest" xmlns="http://www.w3.org/2000/svg"><path d="M204 6.5C101.4 6.5 0 74.9 0 185.6 0 256 39.6 296 63.6 296c9.9 0 15.6-27.6 15.6-35.4 0-9.3-23.7-29.1-23.7-67.8 0-80.4 61.2-137.4 140.4-137.4 68.1 0 118.5 38.7 118.5 109.8 0 53.1-21.3 152.7-90.3 152.7-24.9 0-46.2-18-46.2-43.8 0-37.8 26.4-74.4 26.4-113.4 0-66.2-93.9-54.2-93.9 25.8 0 16.8 2.1 35.4 9.6 50.7-13.8 59.4-42 147.9-42 209.1 0 18.9 2.7 37.5 4.5 56.4 3.4 3.8 1.7 3.4 6.9 1.5 50.4-69 48.6-82.5 71.4-172.8 12.3 23.4 44.1 36 69.3 36 106.2 0 153.9-103.5 153.9-196.8C384 71.3 298.2 6.5 204 6.5z"/></svg><svg id="play-btn" data-name="play btn" viewBox="0 0 130 130" xmlns="http://www.w3.org/2000/svg"><defs><style>.atcls-1,.atcls-2,.atcls-3{fill:#fe3e57}.atcls-1{opacity:.2}.atcls-2{opacity:.6}.atcls-4{fill:#fff;fill-rule:evenodd}</style></defs><circle id="atEllipse_7_copy_2" data-name="Ellipse 7 copy 2" class="atcls-1" cx="65" cy="65" r="65"/><circle id="atEllipse_7_copy" data-name="Ellipse 7 copy" class="atcls-2" cx="65" cy="65" r="55"/><circle class="atcls-3" cx="65" cy="65" r="45"/><path class="atcls-4" d="M649.816 2630.14l-11.824-7.6a2.934 2.934 0 00-1.554-.54 1.507 1.507 0 00-1.431 1.78v16.44a1.507 1.507 0 001.429 1.78 3 3 0 001.546-.54l11.83-7.6a2.056 2.056 0 000-3.72" transform="translate(-578 -2567)"/></svg><svg viewBox="0 0 15 13" id="reply" xmlns="http://www.w3.org/2000/svg"><defs><style>.aucls-1{fill:#8d8d8d;fill-rule:evenodd}</style></defs><path class="aucls-1" d="M5.835 3.48V.01L0 6.08l5.834 6.07V8.59c4.167 0 7.084 1.39 9.167 4.42-.832-4.33-3.333-8.66-9.166-9.53z"/></svg><svg viewBox="0 0 20.03 20" id="search" xmlns="http://www.w3.org/2000/svg"><defs><style>.avcls-1{fill:#29282d;fill-rule:evenodd}</style></defs><path id="avsearch" class="avcls-1" d="M1439.89 63.7l-5.81-5.81a7.944 7.944 0 10-1.18 1.178l5.81 5.81a.417.417 0 00.59 0l.59-.589a.421.421 0 000-.589zm-11.96-4.533a6.25 6.25 0 116.25-6.25 6.254 6.254 0 01-6.25 6.246z" transform="translate(-1420 -45)"/></svg><svg viewBox="0 0 15 15" id="search-white" xmlns="http://www.w3.org/2000/svg"><defs><style>.awcls-1{fill:#fff;fill-rule:evenodd}</style></defs><path id="awsearch_icon" class="awcls-1" d="M694.008 701.681a6.118 6.118 0 10-1.326 1.326l3.992 3.993 1.326-1.327-3.992-3.992zm-4.914.631a4.219 4.219 0 114.218-4.219 4.224 4.224 0 01-4.218 4.219zm0 0" transform="translate(-683 -692)"/></svg><svg viewBox="0 0 18 16" id="star-solid" xmlns="http://www.w3.org/2000/svg"><path d="M11.914 4.695l4.488.664c.371.055.684.317.805.676.117.363.02.754-.246 1.024l-3.258 3.195.77 4.582a1 1 0 01-1.457 1.047l-4.012-2.14-4.012 2.14a1 1 0 01-1.054-.07.992.992 0 01-.399-.977l.766-4.582L1.05 7.059a.995.995 0 01-.246-1.024.992.992 0 01.8-.676l4.489-.664L8.105.562a1 1 0 011.797 0zm0 0"/></svg><svg viewBox="0 0 20 20" id="time" xmlns="http://www.w3.org/2000/svg"><defs><style>.aycls-1{fill:#8d8d8d;fill-rule:evenodd}</style></defs><path class="aycls-1" d="M17.9 5.26a.832.832 0 00-.387 1.11 8.318 8.318 0 11-2.335-2.91.831.831 0 101.037-1.3A10 10 0 1020 10a9.9 9.9 0 00-.992-4.35.83.83 0 00-1.113-.39zM10 3.33a.839.839 0 00-.833.84V10a.831.831 0 00.833.83h4.167a.83.83 0 100-1.66h-3.334v-5A.839.839 0 0010 3.33zm0 0"/></svg><svg aria-hidden="true" data-prefix="fab" data-icon="twitter" class="azsvg-inline--fa azfa-twitter azfa-w-16" viewBox="0 0 512 512" id="twitter" xmlns="http://www.w3.org/2000/svg"><path d="M459.37 151.716c.325 4.548.325 9.097.325 13.645 0 138.72-105.583 298.558-298.558 298.558-59.452 0-114.68-17.219-161.137-47.106 8.447.974 16.568 1.299 25.34 1.299 49.055 0 94.213-16.568 130.274-44.832-46.132-.975-84.792-31.188-98.112-72.772 6.498.974 12.995 1.624 19.818 1.624 9.421 0 18.843-1.3 27.614-3.573-48.081-9.747-84.143-51.98-84.143-102.985v-1.299c13.969 7.797 30.214 12.67 47.431 13.319-28.264-18.843-46.781-51.005-46.781-87.391 0-19.492 5.197-37.36 14.294-52.954 51.655 63.675 129.3 105.258 216.365 109.807-1.624-7.797-2.599-15.918-2.599-24.04 0-57.828 46.782-104.934 104.934-104.934 30.213 0 57.502 12.67 76.67 33.137 23.715-4.548 46.456-13.32 66.599-25.34-7.798 24.366-24.366 44.833-46.132 57.827 21.117-2.273 41.584-8.122 60.426-16.243-14.292 20.791-32.161 39.308-52.628 54.253z"/></svg><svg viewBox="0 0 20 20" id="user" xmlns="http://www.w3.org/2000/svg"><defs><style>.bacls-1{fill:#29282d;fill-rule:evenodd}</style></defs><path id="bauser" class="bacls-1" d="M1392.07 57.928a9.923 9.923 0 00-3.8-2.383 5.78 5.78 0 10-6.54 0A10.018 10.018 0 001375 65h1.56a8.44 8.44 0 0116.88 0h1.56a9.931 9.931 0 00-2.93-7.072zm-11.29-7.148A4.22 4.22 0 111385 55a4.222 4.222 0 01-4.22-4.22z" transform="translate(-1375 -45)"/></svg><svg viewBox="0 0 20 20" id="user-grey" xmlns="http://www.w3.org/2000/svg"><defs><style>.bbcls-1{fill:#8d8d8d;fill-rule:evenodd}</style></defs><path class="bbcls-1" d="M17.071 12.93a9.992 9.992 0 00-3.8-2.39 5.781 5.781 0 10-6.542 0A10.038 10.038 0 000 20h1.562a8.438 8.438 0 1116.875 0H20a9.935 9.935 0 00-2.929-7.07zM5.781 5.78A4.219 4.219 0 1110 10a4.223 4.223 0 01-4.219-4.22z"/></svg></svg>