<svg width="22" height="20" viewBox="0 0 22 20" fill="none" xmlns="http://www.w3.org/2000/svg">
<g clip-path="url(#clip0_2_12)">
<path fill-rule="evenodd" clip-rule="evenodd" d="M21.993 4.718L19.99 12.756C19.899 13.12 19.569 13.376 19.191 13.376H6.378C5.998 13.376 5.666 13.117 5.578 12.749L2.90301 1.633H0.836005C0.382005 1.633 0.130005 1.268 0.130005 0.816C0.130005 0.365 0.382005 0 0.836005 0H3.552C3.933 0 4.264 0.259 4.353 0.626L5.94 3.704H21.194C21.447 3.704 21.686 3.82 21.842 4.18C21.998 4.216 22.53 4.474 21.993 4.718ZM5.487 5.339L7.28 11.741H18.547L20.142 5.339H5.487ZM7.476 14.548C8.989 14.548 10.219 15.77 10.219 17.272C10.219 18.775 8.989 19.997 7.476 19.997C5.963 19.997 4.732 18.775 4.732 17.272C4.732 15.77 5.963 14.548 7.476 14.548ZM7.476 18.363C8.81 18.363 8.573 17.873 8.573 17.272C8.573 16.672 8.81 16.183 7.476 16.183C6.871 16.183 6.378 16.672 6.378 17.272C6.378 17.873 6.871 18.363 7.476 18.363ZM17.435 14.548C18.948 14.548 20.179 15.77 20.179 17.272C20.179 18.775 18.948 19.997 17.435 19.997C15.922 19.997 14.692 18.775 14.692 17.272C14.692 15.77 15.922 14.548 17.435 14.548ZM17.435 18.363C18.4 18.363 18.533 17.873 18.533 17.272C18.533 16.672 18.4 16.183 17.435 16.183C16.83 16.183 16.338 16.672 16.338 17.272C16.338 17.873 16.83 18.363 17.435 18.363Z" fill="#29282D"/>
</g>
<defs>
<clipPath id="clip0_2_12">
<rect width="22" height="20" fill="white"/>
</clipPath>
</defs>
</svg>
