<svg width="21" height="20" viewBox="0 0 21 20" fill="none" xmlns="http://www.w3.org/2000/svg">
<path fill-rule="evenodd" clip-rule="evenodd" d="M19.778 4.588C19.96 2.169 17.95 0.725995 15.605 0.216995C13.902 0.376995 11.858 0.216995 10.27 1.829C8.19599 0.258995 6.15199 0.291995 4.44799 0.258995C2.95799 0.810995 0.956988 2.254 0.274988 4.63C0.191988 6.201 0.233988 8.747 2.23399 11.845C3.34099 13.245 5.44999 15.241 6.44999 16.811C9.13299 19.825 9.55799 19.993 9.94099 19.993C9.98399 19.993 9.98399 19.993 10.27 19.993H10.69H10.112C10.495 19.993 10.878 19.825 13.561 16.769C14.966 15.155 16.669 13.16 17.776 11.802C20.246 8.705 20.246 6.158 19.778 4.588ZM16.499 10.784C14.54 13.245 11.176 17.108 10.27 18.169C8.87699 17.108 5.51299 13.245 3.55399 10.784C1.93599 8.79 1.33999 6.837 1.85099 5.97C2.36199 3.315 3.85199 2.254 4.95899 1.872C6.19399 1.405 7.85499 2.41 9.38799 3.527C9.68599 3.824 10.112 3.866 10.452 3.654C10.538 3.612 10.623 3.569 10.665 3.484C12.198 2.41 13.859 1.405 15.94 1.829C16.201 2.254 17.691 3.315 18.202 5.97C18.713 6.795 18.117 8.79 16.499 10.784Z" fill="#29282D"/>
</svg>
