<svg width="21" height="20" viewBox="0 0 21 20" fill="none" xmlns="http://www.w3.org/2000/svg">
<path fill-rule="evenodd" clip-rule="evenodd" d="M19.778 4.588C19.96 2.169 17.95 0.726 15.605 0.217C13.902 0.377 11.858 0.217 10.27 1.829C8.196 0.259 6.152 0.292 4.448 0.259C2.958 0.811 0.956999 2.254 0.274999 4.63C0.191999 6.201 0.233999 8.747 2.234 11.845C3.341 13.245 5.45 15.241 6.45 16.811C9.133 19.825 9.558 19.993 9.941 19.993C9.984 19.993 9.984 19.993 10.27 19.993H10.69H10.112C10.495 19.993 10.878 19.825 13.561 16.769C14.966 15.155 16.669 13.16 17.776 11.802C20.246 8.705 20.246 6.158 19.778 4.588ZM16.499 10.784C14.54 13.245 11.176 17.108 10.27 18.169C8.877 17.108 5.513 13.245 3.554 10.784C1.936 8.79 1.34 6.837 1.851 5.97C2.362 3.315 3.852 2.254 4.959 1.872C6.194 1.405 7.855 2.41 9.388 3.527C9.686 3.824 10.112 3.866 10.452 3.654C10.538 3.612 10.623 3.569 10.665 3.484C12.198 2.41 13.859 1.405 15.94 1.829C16.201 2.254 17.691 3.315 18.202 5.97C18.713 6.795 18.117 8.79 16.499 10.784Z" fill="#29282D"/>
</svg>
