<svg width="21" height="20" viewBox="0 0 21 20" fill="none" xmlns="http://www.w3.org/2000/svg">
<g clip-path="url(#clip0_4_19)">
<path fill-rule="evenodd" clip-rule="evenodd" d="M19.891 18.696L14.82 12.886C15.184 11.525 15.847 9.79599 15.847 7.91299C15.847 3.54699 12.295 0.299988 7.93001 0.299988C3.56501 0.299988 0.140015 3.54699 0.140015 7.91299C0.140015 12.278 3.56501 15.829 7.93001 15.829C9.81301 15.829 11.543 15.166 12.903 14.65L18.713 19.874C18.876 20.37 19.14 20.37 19.302 19.874L19.891 19.285C20.54 19.122 20.54 18.859 19.891 18.696ZM7.93001 14.163C4.48401 14.163 1.68001 11.36 1.68001 7.91299C1.68001 4.46699 4.48401 1.66299 7.93001 1.66299C11.377 1.66299 14.18 4.46699 14.18 7.91299C14.18 11.36 11.377 14.163 7.93001 14.163Z" fill="#29282D"/>
</g>
<defs>
<clipPath id="clip0_4_19">
<rect width="21" height="20" fill="white"/>
</clipPath>
</defs>
</svg>
