<svg width="21" height="20" viewBox="0 0 21 20" fill="none" xmlns="http://www.w3.org/2000/svg">
<path fill-rule="evenodd" clip-rule="evenodd" d="M19.891 18.696L14.82 12.886C15.184 11.525 15.847 9.796 15.847 7.913C15.847 3.547 12.295 0.3 7.93 0.3C3.565 0.3 0.139999 3.547 0.139999 7.913C0.139999 12.278 3.565 15.829 7.93 15.829C9.813 15.829 11.543 15.166 12.903 14.65L18.713 19.874C18.876 20.37 19.14 20.37 19.302 19.874L19.891 19.285C20.54 19.122 20.54 18.859 19.891 18.696ZM7.93 14.163C4.484 14.163 1.68 11.36 1.68 7.913C1.68 4.467 4.484 1.663 7.93 1.663C11.377 1.663 14.18 4.467 14.18 7.913C14.18 11.36 11.377 14.163 7.93 14.163Z" fill="#29282D"/>
</svg>
