<svg width="20" height="20" viewBox="0 0 20 20" fill="none" xmlns="http://www.w3.org/2000/svg">
<path fill-rule="evenodd" clip-rule="evenodd" d="M17.7 12.927C15.981 11.838 14.685 11.32 13.27 10.544C14.785 9.5 15.781 7.754 15.781 5.78C15.781 2.591 13.187 0.1 9.999 0.1C6.812 0.1 4.218 2.591 4.218 5.78C4.218 7.754 5.213 9.5 6.728 10.544C5.314 11.32 4.17 11.838 2.928 12.927C1.4 14.816 0 17.327 0 19.998H1.562C1.562 15.346 5.347 11.561 9.999 11.561C14.652 11.561 18.437 15.346 18.437 19.998H19.999C19.999 17.327 18.959 14.816 17.7 12.927ZM5.781 5.78C5.781 3.453 7.673 1.561 9.999 1.561C12.326 1.561 14.218 3.453 14.218 5.78C14.218 8.106 12.326 9.998 9.999 9.998C7.673 9.998 5.781 8.106 5.781 5.78Z" fill="#29282D"/>
</svg>
