<svg width="20" height="20" viewBox="0 0 20 20" fill="none" xmlns="http://www.w3.org/2000/svg">
<path fill-rule="evenodd" clip-rule="evenodd" d="M17.7 12.927C15.981 11.838 14.685 11.32 13.27 10.544C14.785 9.50001 15.781 7.75401 15.781 5.78001C15.781 2.59101 13.187 0.100006 9.999 0.100006C6.812 0.100006 4.218 2.59101 4.218 5.78001C4.218 7.75401 5.213 9.50001 6.728 10.544C5.314 11.32 4.17 11.838 2.928 12.927C1.4 14.816 0 17.327 0 19.998H1.562C1.562 15.346 5.347 11.561 9.999 11.561C14.652 11.561 18.437 15.346 18.437 19.998H19.999C19.999 17.327 18.959 14.816 17.7 12.927ZM5.781 5.78001C5.781 3.45301 7.673 1.56101 9.999 1.56101C12.326 1.56101 14.218 3.45301 14.218 5.78001C14.218 8.10601 12.326 9.99801 9.999 9.99801C7.673 9.99801 5.781 8.10601 5.781 5.78001Z" fill="#29282D"/>
</svg>
